<?xml version="1.0" encoding="UTF-8"?>
<svg version="1.1" xmlns="http://www.w3.org/2000/svg" width="500" height="500">
<path d="M0 0 C5.31396783 4.17363139 7.78268549 9.37930648 9.8828125 15.6796875 C10.35549763 22.1609278 10.38773726 27.95495907 8.0078125 34.0546875 C6.82731431 37.36302688 6.82731431 37.36302688 7.73828125 40.60546875 C9.32076502 42.51887406 10.98544378 44.07866237 12.8828125 45.6796875 C13.46675781 46.1953125 14.05070312 46.7109375 14.65234375 47.2421875 C15.93101117 48.36203097 17.21942405 49.4708113 18.515625 50.5703125 C23.52712296 55.03600375 28.17343105 59.89966532 32.8828125 64.6796875 C36.53741333 63.20005929 38.27165307 61.23450336 40.6328125 58.1171875 C41.33535156 57.21871094 42.03789062 56.32023437 42.76171875 55.39453125 C43.46167969 54.49863281 44.16164063 53.60273438 44.8828125 52.6796875 C58.27094346 35.88056777 77.44569943 24.60037896 97.8828125 18.6796875 C98.57197754 18.46940918 99.26114258 18.25913086 99.97119141 18.04248047 C119.7257967 12.20620761 145.08777705 12.01738666 164.8828125 17.6796875 C166.07390625 17.99679688 167.265 18.31390625 168.4921875 18.640625 C194.154749 26.27442494 216.18690364 43.16277933 231.8828125 64.6796875 C235.36935726 63.1955502 237.52472322 61.21754698 240.1328125 58.4921875 C243.62716602 54.91176616 247.22417869 51.57564495 251.01953125 48.3203125 C253.77248234 45.89633041 256.32193373 43.30458824 258.8828125 40.6796875 C258.66625 40.12023437 258.4496875 39.56078125 258.2265625 38.984375 C255.18025922 30.21214981 253.96521402 20.41011062 257.5703125 11.6171875 C259.4736775 7.99811321 261.75780094 5.34738029 264.8828125 2.6796875 C265.9965625 1.6278125 265.9965625 1.6278125 267.1328125 0.5546875 C273.56470624 -3.8306946 281.17726317 -5.67945458 288.8828125 -4.3203125 C296.66757689 -1.60261342 303.68443515 2.38134547 307.8828125 9.6796875 C308.41933875 11.67019989 308.91740564 13.67135574 309.3828125 15.6796875 C310.5381896 19.73114201 311.63347027 21.82058918 315.21484375 23.9453125 C317.19792134 24.98038348 319.20638881 25.93485547 321.23339844 26.88061523 C328.2360526 30.16193228 331.88277804 34.32479099 335.8203125 40.9296875 C338.05209814 48.80657799 337.88954267 56.33679205 334.06640625 63.65234375 C333.67582031 64.32136719 333.28523438 64.99039063 332.8828125 65.6796875 C332.54378906 66.31777344 332.20476562 66.95585937 331.85546875 67.61328125 C328.25994702 73.56316596 322.37295251 76.30479967 315.8671875 78.296875 C310.11223292 79.40708277 304.62589794 79.15269632 299.1328125 77.1171875 C295.25340457 75.70834988 292.87688825 75.11678829 288.8828125 76.6796875 C287.05280512 78.23083661 285.43847198 79.88029621 283.81713867 81.64819336 C282.02140639 83.53413156 280.1768986 85.22665674 278.19921875 86.91796875 C273.76673068 90.75782356 269.46957805 94.72766284 265.1953125 98.7421875 C264.46248047 99.42345703 263.72964844 100.10472656 262.97460938 100.80664062 C258.97054656 104.56518831 255.240742 108.32828773 251.8828125 112.6796875 C251.8828125 113.0096875 251.8828125 113.3396875 251.8828125 113.6796875 C253.17904541 113.69950684 254.47527832 113.71932617 255.81079102 113.73974609 C260.63975796 113.81606585 265.46843393 113.90474219 270.29711914 113.99707031 C272.38332354 114.03525133 274.46959132 114.07012283 276.5559082 114.1015625 C279.5622415 114.14744977 282.56814249 114.20540483 285.57421875 114.265625 C286.50053604 114.27717621 287.42685333 114.28872742 288.38124084 114.30062866 C294.57391092 114.44039311 300.34971132 114.60124551 305.3203125 118.6796875 C307.58302066 123.02408716 307.53848513 126.87668802 306.8828125 131.6796875 C305.63616696 134.67163681 304.82701705 136.09509656 302.08868408 137.79049683 C299.51308106 138.82872689 297.61219462 138.92074499 294.83886719 138.90673828 C293.33776398 138.90651169 293.33776398 138.90651169 291.80633545 138.90628052 C290.73329163 138.89595795 289.6602478 138.88563538 288.5546875 138.875 C287.45054504 138.8721701 286.34640259 138.86934021 285.20880127 138.86642456 C281.6833613 138.85523239 278.15817565 138.83012925 274.6328125 138.8046875 C272.24219117 138.79465647 269.85156586 138.78553083 267.4609375 138.77734375 C261.60147577 138.7552962 255.74216231 138.72182803 249.8828125 138.6796875 C249.4801416 140.52216064 249.4801416 140.52216064 249.06933594 142.40185547 C248.71038646 144.03355065 248.35133139 145.6652226 247.9921875 147.296875 C247.81606934 148.10406982 247.63995117 148.91126465 247.45849609 149.74291992 C241.48703452 176.8071248 226.09429762 202.75665122 203.8828125 219.6796875 C203.2228125 219.6796875 202.5628125 219.6796875 201.8828125 219.6796875 C202.45823399 223.15163395 203.56056368 224.6849517 206.13671875 227.04296875 C207.15971069 227.99139648 207.15971069 227.99139648 208.20336914 228.95898438 C208.94321045 229.62994141 209.68305176 230.30089844 210.4453125 230.9921875 C211.99741534 232.42576013 213.54949819 233.85935441 215.1015625 235.29296875 C215.895625 236.02080566 216.6896875 236.74864258 217.5078125 237.49853516 C221.17655158 240.86783151 224.81164192 244.27266177 228.4453125 247.6796875 C229.11506104 248.30593018 229.78480957 248.93217285 230.47485352 249.57739258 C234.44504917 253.29817275 238.32688004 257.08720513 242.140625 260.96875 C244.72955662 263.51124339 247.46372801 265.87449561 250.21875 268.234375 C251.48447714 269.33371548 252.6973559 270.4942309 253.8828125 271.6796875 C257.54093512 271.41201999 260.67165586 270.39625183 264.0703125 269.1171875 C271.01393773 266.75985591 277.86294249 266.5423757 284.6953125 269.3671875 C292.19865069 273.2191686 296.46057344 278.05804751 299.8828125 285.6796875 C302.25633384 293.20585328 301.51495471 301.21926502 298.25390625 308.328125 C294.20240925 315.27684635 289.79160576 318.58305388 282.1328125 320.9296875 C277.29332864 322.52719192 277.29332864 322.52719192 274.30078125 326.44140625 C273.35621969 329.50088252 272.61516469 332.56401575 271.8828125 335.6796875 C268.06509828 342.67883023 262.49254618 347.26045224 254.8828125 349.6796875 C252.1303453 349.98551719 249.6836 350.15915359 246.9453125 350.1171875 C246.24019531 350.10816406 245.53507812 350.09914063 244.80859375 350.08984375 C235.55216472 349.78129612 231.01073554 346.25411749 224.64453125 339.875 C218.84634839 332.64976992 219.27526995 325.57190122 219.8828125 316.6796875 C220.44437945 313.99664538 221.07127514 311.42876842 221.93359375 308.828125 C222.10521936 306.41055923 222.10521936 306.41055923 219.7578125 304.23828125 C218.8090625 303.39394531 217.8603125 302.54960937 216.8828125 301.6796875 C213.54947917 298.34635417 210.21614583 295.01302083 206.8828125 291.6796875 C206.70741943 292.22794189 206.53202637 292.77619629 206.35131836 293.34106445 C198.14897709 318.6654942 198.14897709 318.6654942 187.8828125 327.6796875 C187.33367187 328.21980469 186.78453125 328.75992187 186.21875 329.31640625 C177.1010231 337.96511428 165.92028332 341.81165321 153.8828125 344.6796875 C152.95339844 344.9065625 152.02398437 345.1334375 151.06640625 345.3671875 C129.04736493 349.87748899 104.71425899 346.64425778 85.61621094 334.55444336 C72.33230873 325.61245951 64.68657577 312.04358813 60.29296875 296.86328125 C59.83547961 294.42769619 59.80893719 292.15233743 59.8828125 289.6796875 C57.17815972 291.97164122 54.52860414 294.32016184 51.8828125 296.6796875 C51.03460938 297.4015625 50.18640625 298.1234375 49.3125 298.8671875 C44.77154646 302.67357406 44.77154646 302.67357406 42.50390625 307.890625 C42.73193182 310.29264497 42.73193182 310.29264497 43.8828125 313.6796875 C46.08760123 321.38092139 45.51969347 329.52199624 41.8828125 336.6796875 C37.19074064 343.66814374 31.1818397 348.04433591 22.8828125 349.6796875 C13.25661488 350.39477647 6.22844776 349.60779089 -1.3671875 343.4921875 C-5.68627787 339.46047301 -8.36937176 335.11284159 -9.6328125 329.3125 C-10.21358869 326.78197517 -10.73590084 324.88712346 -12.1171875 322.6796875 C-14.81943586 321.21088476 -17.44869179 320.36155382 -20.39453125 319.48828125 C-26.64362675 317.63238058 -29.9496489 314.22750433 -33.08203125 308.73828125 C-36.4496666 302.04113472 -37.03655481 295.05338857 -36.1171875 287.6796875 C-33.18307388 278.92584437 -27.94159849 273.44237245 -20.1171875 268.6796875 C-12.77822854 266.23336785 -3.52019381 266.65639508 3.5078125 269.8046875 C4.24257812 270.19914062 4.97734375 270.59359375 5.734375 271 C7.92143818 271.89462402 7.92143818 271.89462402 10.35546875 271.08984375 C13.35267562 269.41752276 15.33490042 267.48225064 17.6953125 264.9921875 C20.66892275 261.92194589 23.62578986 258.94782642 26.8828125 256.1796875 C30.03675415 253.48357609 32.96654647 250.63151775 35.8828125 247.6796875 C39.36385719 244.16161042 42.91139064 240.82429539 46.66796875 237.60546875 C49.55521137 235.09504439 52.37595581 232.51586113 55.1953125 229.9296875 C55.7114209 229.45732666 56.2275293 228.98496582 56.75927734 228.49829102 C59.1832823 226.27210716 61.58295002 224.0344955 63.8828125 221.6796875 C61.16689142 218.19991362 58.44575744 215.21667554 55.0703125 212.3671875 C39.51634134 198.96460674 28.81842378 180.35134205 22.5078125 160.9921875 C22.25676758 160.23260742 22.00572266 159.47302734 21.74707031 158.69042969 C20.42953672 154.41441759 19.6766047 150.34807651 19.31005859 145.88354492 C19.22774994 144.90536301 19.14544128 143.92718109 19.06063843 142.9193573 C19.00195587 142.18026627 18.94327332 141.44117523 18.8828125 140.6796875 C18.28003983 140.67382126 17.67726715 140.66795502 17.05622864 140.66191101 C10.77798159 140.5979374 4.50024525 140.51350728 -1.77758789 140.41723633 C-4.11996728 140.38399844 -6.46242654 140.355963 -8.80493164 140.33325195 C-12.17368583 140.29968582 -15.54170881 140.24736731 -18.91015625 140.19140625 C-19.95616501 140.18501633 -21.00217377 140.1786264 -22.07987976 140.17204285 C-31.27299837 139.98648015 -31.27299837 139.98648015 -35.1171875 136.6796875 C-37.41774747 133.22884755 -37.38729006 131.80793022 -37.3671875 127.7421875 C-37.37492187 126.18177734 -37.37492187 126.18177734 -37.3828125 124.58984375 C-36.96683038 120.03239259 -36.96683038 120.03239259 -35.1171875 117.6796875 C-29.24910934 114.51420027 -24.18112947 114.21238787 -17.58984375 114.16796875 C-16.60092636 114.15001755 -15.61200897 114.13206635 -14.59312439 114.11357117 C-11.45535459 114.05967945 -8.31773508 114.02564011 -5.1796875 113.9921875 C-3.04359898 113.9589958 -0.90753023 113.92450443 1.22851562 113.88867188 C6.44647976 113.80396542 11.66446386 113.73552665 16.8828125 113.6796875 C7.07013468 103.65756986 7.07013468 103.65756986 -3.30615234 94.23242188 C-6.78658929 91.24838589 -10.09391451 88.07331492 -13.4296875 84.9296875 C-14.13158203 84.27097656 -14.83347656 83.61226563 -15.55664062 82.93359375 C-20.99193328 77.82472953 -20.99193328 77.82472953 -22.60229492 75.95996094 C-24.26498293 74.25924797 -24.26498293 74.25924797 -27.8671875 74.8671875 C-30.55138249 75.30721947 -32.93920597 75.93376594 -35.5546875 76.7421875 C-44.19616514 79.01626056 -51.07343528 77.3803275 -59.1171875 73.6796875 C-64.78690583 70.2285546 -67.6850815 64.74848607 -70.4296875 58.8671875 C-72.29611998 50.21372783 -71.55718524 42.4100407 -67.1171875 34.6796875 C-61.95170286 27.47888962 -54.30605835 24.40931112 -46.1171875 21.6796875 C-45.30453994 19.6476414 -45.30453994 19.6476414 -44.8046875 17.1796875 C-42.3763976 8.46274938 -38.11899571 2.52578326 -30.34375 -2.16796875 C-20.04665098 -7.49716912 -9.63333411 -6.00750356 0 0 Z " fill="#0D0C0A" transform="translate(117.1171875,77.3203125)"/>
<path d="M0 0 C5.31396783 4.17363139 7.78268549 9.37930648 9.8828125 15.6796875 C10.35549763 22.1609278 10.38773726 27.95495907 8.0078125 34.0546875 C6.82731431 37.36302688 6.82731431 37.36302688 7.73828125 40.60546875 C9.32076502 42.51887406 10.98544378 44.07866237 12.8828125 45.6796875 C13.46675781 46.1953125 14.05070312 46.7109375 14.65234375 47.2421875 C15.93101117 48.36203097 17.21942405 49.4708113 18.515625 50.5703125 C23.52712296 55.03600375 28.17343105 59.89966532 32.8828125 64.6796875 C36.53741333 63.20005929 38.27165307 61.23450336 40.6328125 58.1171875 C41.33535156 57.21871094 42.03789062 56.32023437 42.76171875 55.39453125 C43.46167969 54.49863281 44.16164063 53.60273438 44.8828125 52.6796875 C58.27094346 35.88056777 77.44569943 24.60037896 97.8828125 18.6796875 C98.57197754 18.46940918 99.26114258 18.25913086 99.97119141 18.04248047 C119.7257967 12.20620761 145.08777705 12.01738666 164.8828125 17.6796875 C166.07390625 17.99679688 167.265 18.31390625 168.4921875 18.640625 C194.154749 26.27442494 216.18690364 43.16277933 231.8828125 64.6796875 C235.36935726 63.1955502 237.52472322 61.21754698 240.1328125 58.4921875 C243.62716602 54.91176616 247.22417869 51.57564495 251.01953125 48.3203125 C253.77248234 45.89633041 256.32193373 43.30458824 258.8828125 40.6796875 C258.66625 40.12023437 258.4496875 39.56078125 258.2265625 38.984375 C255.18025922 30.21214981 253.96521402 20.41011062 257.5703125 11.6171875 C259.4736775 7.99811321 261.75780094 5.34738029 264.8828125 2.6796875 C265.9965625 1.6278125 265.9965625 1.6278125 267.1328125 0.5546875 C273.56470624 -3.8306946 281.17726317 -5.67945458 288.8828125 -4.3203125 C296.66757689 -1.60261342 303.68443515 2.38134547 307.8828125 9.6796875 C308.41933875 11.67019989 308.91740564 13.67135574 309.3828125 15.6796875 C310.5381896 19.73114201 311.63347027 21.82058918 315.21484375 23.9453125 C317.19792134 24.98038348 319.20638881 25.93485547 321.23339844 26.88061523 C328.2360526 30.16193228 331.88277804 34.32479099 335.8203125 40.9296875 C338.05209814 48.80657799 337.88954267 56.33679205 334.06640625 63.65234375 C333.67582031 64.32136719 333.28523438 64.99039063 332.8828125 65.6796875 C332.54378906 66.31777344 332.20476562 66.95585937 331.85546875 67.61328125 C328.25994702 73.56316596 322.37295251 76.30479967 315.8671875 78.296875 C310.11223292 79.40708277 304.62589794 79.15269632 299.1328125 77.1171875 C295.25340457 75.70834988 292.87688825 75.11678829 288.8828125 76.6796875 C287.05280512 78.23083661 285.43847198 79.88029621 283.81713867 81.64819336 C282.02140639 83.53413156 280.1768986 85.22665674 278.19921875 86.91796875 C273.76673068 90.75782356 269.46957805 94.72766284 265.1953125 98.7421875 C264.46248047 99.42345703 263.72964844 100.10472656 262.97460938 100.80664062 C258.97054656 104.56518831 255.240742 108.32828773 251.8828125 112.6796875 C251.8828125 113.0096875 251.8828125 113.3396875 251.8828125 113.6796875 C268.7128125 114.1746875 268.7128125 114.1746875 285.8828125 114.6796875 C285.2228125 115.0096875 284.5628125 115.3396875 283.8828125 115.6796875 C283.8828125 116.9996875 283.8828125 118.3196875 283.8828125 119.6796875 C283.22800107 119.67990487 282.57318963 119.68012224 281.89853543 119.68034619 C243.11880215 119.69385191 204.33917317 119.73328323 165.5595047 119.80654312 C160.90677626 119.81531024 156.25404745 119.82385998 151.60131836 119.83227539 C150.21186289 119.83479398 150.21186289 119.83479398 148.79433761 119.83736346 C133.78108425 119.86405841 118.76786906 119.87313032 103.75459441 119.87572893 C88.35810742 119.87878465 72.9617311 119.90068709 57.56529409 119.94021207 C48.05912282 119.964018 38.55317225 119.97299203 29.04697523 119.96320061 C22.53479231 119.957899 16.02280778 119.97084659 9.51068135 119.9983504 C5.74924632 120.01369139 1.98825504 120.02078916 -1.77319336 120.00628471 C-5.84506859 119.99079268 -9.91580934 120.01362903 -13.98762512 120.04045105 C-15.18508057 120.02977779 -16.38253602 120.01910453 -17.61627799 120.00810784 C-18.70210377 120.02154648 -19.78792954 120.03498512 -20.90665913 120.04883099 C-21.84722638 120.04997015 -22.78779364 120.05110931 -23.75686294 120.05228299 C-26.35138083 120.48271384 -26.35138083 120.48271384 -27.91550177 123.05505353 C-29.24009528 125.94813367 -29.69411332 127.54780449 -29.1171875 130.6796875 C-26.3222058 133.27445904 -24.40654323 134.057714 -20.62402344 134.11206055 C-19.30310699 134.14175179 -19.30310699 134.14175179 -17.95550537 134.17204285 C-17.01370422 134.17843277 -16.07190308 134.18482269 -15.1015625 134.19140625 C-14.13059631 134.20935745 -13.15963013 134.22730865 -12.15924072 134.24580383 C-9.06193365 134.29993023 -5.9647809 134.33381033 -2.8671875 134.3671875 C-0.76560352 134.40035848 1.3359601 134.43484793 3.4375 134.47070312 C8.58582621 134.55565823 13.73410645 134.62245858 18.8828125 134.6796875 C18.8828125 135.0096875 18.8828125 135.3396875 18.8828125 135.6796875 C17.65127441 135.69427002 16.41973633 135.70885254 15.15087891 135.72387695 C10.59214892 135.78174402 6.03391893 135.85897682 1.47558594 135.94213867 C-0.49926656 135.97544278 -2.4742155 136.00345747 -4.44921875 136.02612305 C-7.28427327 136.05956872 -10.1184395 136.11187796 -12.953125 136.16796875 C-13.83962738 136.17435867 -14.72612976 136.1807486 -15.63949585 136.18733215 C-16.46019562 136.20712631 -17.28089539 136.22692047 -18.12646484 136.24731445 C-18.85038422 136.25841751 -19.57430359 136.26952057 -20.32015991 136.28096008 C-22.53366953 136.55459257 -22.53366953 136.55459257 -24.1171875 139.6796875 C-28.52575271 139.57606738 -32.01350285 139.46034249 -35.6796875 136.8671875 C-38.11791962 131.46067281 -38.06652519 125.21755264 -36.53125 119.49609375 C-33.8887086 116.10166902 -29.8927688 114.90463979 -25.75018311 114.37980652 C-23.02713406 114.23879507 -20.31647333 114.18634369 -17.58984375 114.16796875 C-16.60092636 114.15001755 -15.61200897 114.13206635 -14.59312439 114.11357117 C-11.45535459 114.05967945 -8.31773508 114.02564011 -5.1796875 113.9921875 C-3.04359898 113.9589958 -0.90753023 113.92450443 1.22851562 113.88867188 C6.44647976 113.80396542 11.66446386 113.73552665 16.8828125 113.6796875 C7.07013468 103.65756986 7.07013468 103.65756986 -3.30615234 94.23242188 C-6.78658929 91.24838589 -10.09391451 88.07331492 -13.4296875 84.9296875 C-14.13158203 84.27097656 -14.83347656 83.61226563 -15.55664062 82.93359375 C-20.99193328 77.82472953 -20.99193328 77.82472953 -22.60229492 75.95996094 C-24.26498293 74.25924797 -24.26498293 74.25924797 -27.8671875 74.8671875 C-30.55138249 75.30721947 -32.93920597 75.93376594 -35.5546875 76.7421875 C-44.19616514 79.01626056 -51.07343528 77.3803275 -59.1171875 73.6796875 C-64.78690583 70.2285546 -67.6850815 64.74848607 -70.4296875 58.8671875 C-72.29611998 50.21372783 -71.55718524 42.4100407 -67.1171875 34.6796875 C-61.95170286 27.47888962 -54.30605835 24.40931112 -46.1171875 21.6796875 C-45.30453994 19.6476414 -45.30453994 19.6476414 -44.8046875 17.1796875 C-42.3763976 8.46274938 -38.11899571 2.52578326 -30.34375 -2.16796875 C-20.04665098 -7.49716912 -9.63333411 -6.00750356 0 0 Z " fill="#080606" transform="translate(117.1171875,77.3203125)"/>
<path d="M0 0 C71.28 0 142.56 0 216 0 C210.06974231 29.65128846 196.30062402 57.13778808 171 75 C163.29211796 80.0524624 154.90391107 83.61365176 146.3125 86.875 C145.56532715 87.16149414 144.8181543 87.44798828 144.04833984 87.74316406 C132.60467402 91.87511553 121.14160053 92.34851552 109.1105957 92.31567383 C106.70152262 92.31251837 104.29368762 92.3360434 101.88476562 92.36132812 C88.72769051 92.41659402 76.24641215 90.85063203 63.9375 85.875 C63.18855469 85.5764209 62.43960938 85.2778418 61.66796875 84.97021484 C36.73009484 74.60594114 18.5757128 53.46182878 8 29 C6.8621436 26.18552155 5.79000686 23.35200049 4.75 20.5 C4.38032104 19.50456177 4.38032104 19.50456177 4.00317383 18.48901367 C1.8227895 12.25234575 1.13037378 6.78224269 0 0 Z " fill="#F8F8F8" transform="translate(143,217)"/>
<path d="M0 0 C10.30387949 8.7013481 18.66344501 18.28940035 26.0390625 29.56640625 C26.91691406 30.88125 26.91691406 30.88125 27.8125 32.22265625 C29.0390625 34.56640625 29.0390625 34.56640625 29.0390625 38.56640625 C-34.6509375 38.56640625 -98.3409375 38.56640625 -163.9609375 38.56640625 C-160.58745706 21.69900406 -143.34173152 5.6346267 -129.7109375 -4.18359375 C-116.53374293 -12.82232463 -103.37628517 -18.14025422 -87.9609375 -21.43359375 C-87.03152344 -21.63597656 -86.10210937 -21.83835937 -85.14453125 -22.046875 C-54.94092374 -25.71577947 -24.1482431 -18.82798374 0 0 Z " fill="#FCCF21" transform="translate(317.9609375,120.43359375)"/>
<path d="M0 0 C66.99 0 133.98 0 203 0 C208.23072796 11.76913791 209 13.58668599 209 27 C138.05 27 67.1 27 -6 27 C-6 20.36291216 -5.7912049 17.20941898 -4.125 11.25 C-3.95097656 10.60417969 -3.77695313 9.95835937 -3.59765625 9.29296875 C-2.66754729 5.93768681 -1.56913987 3.13827973 0 0 Z " fill="#FD0012" transform="translate(149,165)"/>
<path d="M0 0 C1.051875 0.58007812 1.051875 0.58007812 2.125 1.171875 C5.07735789 2.79246276 8.03760342 4.3978471 11 6 C11.64324219 6.35578125 12.28648437 6.7115625 12.94921875 7.078125 C38.59536985 20.67922985 66.90341852 23.04204602 95 17 C96.66289062 16.65775391 96.66289062 16.65775391 98.359375 16.30859375 C109.32267333 13.82339011 119.27834819 8.94663761 129.3828125 4.13671875 C132 3 132 3 134 3 C134.80414744 19.52969744 130.19976105 35.46341085 119.75 48.5 C108.12536835 60.49619521 91.79861478 66.89652467 75.3203125 67.43359375 C73.27698546 67.455887 71.23530192 67.45886763 69.19189453 67.44604492 C67.13341983 67.43753481 65.07773431 67.46641616 63.01953125 67.49804688 C45.81825265 67.58912486 29.71408662 62.31116783 17.1796875 50.27734375 C4.37946368 36.9036332 -0.49201213 21.02857129 -0.10546875 2.82421875 C-0.07066406 1.89222656 -0.03585938 0.96023438 0 0 Z " fill="#FBFBFB" transform="translate(183,351)"/>
<path d="M0 0 C10.6506072 8.91678742 20.65135302 18.59567046 30.74902344 28.1262207 C35.94446005 33.02418618 41.19529291 37.85548836 46.48046875 42.65625 C48.71048163 44.73068059 50.8325301 46.86287407 52.9375 49.0625 C55.40224709 51.58765756 57.52326591 53.05179979 61 54 C61.45890625 53.57847656 61.9178125 53.15695312 62.390625 52.72265625 C63.00421875 52.17480469 63.6178125 51.62695312 64.25 51.0625 C64.85328125 50.51722656 65.4565625 49.97195313 66.078125 49.41015625 C70.61203161 46.08344835 76.61668324 46.3444385 82 47 C88.66185065 49.00246244 93.47583294 52.36593265 96.9921875 58.4140625 C99.28835962 64.30579098 99.11328532 69.89315724 96.9921875 75.8125 C94.05533534 81.45125615 90.57256075 84.7108184 84.74609375 87.23828125 C80.15317672 88.51227673 75.71738643 88.40357869 71 88 C71.33 88.66 71.66 89.32 72 90 C72.79695113 96.76269962 72.41767352 101.78621501 68.3515625 107.3515625 C67.90554688 107.89554687 67.45953125 108.43953125 67 109 C66.38125 109.763125 65.7625 110.52625 65.125 111.3125 C59.91599915 115.4490595 55.03431734 116.57049845 48.49609375 116.3515625 C43.20872025 115.60686201 39.38112904 113.41845685 35.6875 109.625 C30.88979294 102.16190012 30.04859182 97.01651587 31.6875 88.375 C33.2711494 84.30275868 35.32727357 81.4464104 38 78 C37.17242187 77.66548828 37.17242187 77.66548828 36.328125 77.32421875 C33.2694324 75.58445903 31.1926188 73.34235518 28.75 70.8125 C24.92891971 66.89937629 21.03802928 63.15534622 16.8515625 59.6328125 C16.24054688 59.09398437 15.62953125 58.55515625 15 58 C14.12214844 57.35546875 13.24429687 56.7109375 12.33984375 56.046875 C8.77693971 51.40736723 9.1371828 46.83154685 8.9375 41.125 C8.180962 27.86748153 5.55803879 16.48587675 0.734375 4.07421875 C0 2 0 2 0 0 Z " fill="#FAFAFA" transform="translate(313,305)"/>
<path d="M0 0 C0.66 0 1.32 0 2 0 C1.5875 1.134375 1.175 2.26875 0.75 3.4375 C-0.6495857 7.73575371 -1.93726237 12.05942628 -3.0625 16.4375 C-3.24490234 17.14366455 -3.42730469 17.8498291 -3.61523438 18.57739258 C-4.69092017 23.22298581 -5.10475365 27.58414473 -5.13671875 32.35546875 C-5.35896724 51.72343964 -5.35896724 51.72343964 -12.29980469 58.65161133 C-15.08858338 61.06296851 -17.9526773 63.31440872 -20.94091797 65.47314453 C-24.00232796 67.74324864 -26.73137884 70.32557559 -29.5 72.9375 C-30.99878128 74.29301542 -32.49824286 75.64778224 -34 77 C-32.77323093 79.55853188 -31.50737649 81.70995742 -29.875 84.0625 C-27.15783731 88.8508584 -27.12958947 93.64997665 -28 99 C-30.39706956 105.45440453 -33.95822692 110.07367834 -40.25390625 113.07421875 C-46.4408525 115.1600029 -53.59290208 115.11758118 -59.5 112.375 C-64.22186464 107.88922859 -68.78577996 103.54748389 -69.1953125 96.765625 C-69.17210938 95.60546875 -69.14890625 94.4453125 -69.125 93.25 C-69.10695313 92.07953125 -69.08890625 90.9090625 -69.0703125 89.703125 C-69.04710938 88.81109375 -69.02390625 87.9190625 -69 87 C-69.8353125 87.05220703 -69.8353125 87.05220703 -70.6875 87.10546875 C-77.61355429 87.35115649 -82.99691451 86.76242011 -88.2421875 81.9375 C-94.44360193 75.22849649 -95.38343151 70.96975602 -95.2734375 61.90625 C-94.67645473 55.56117602 -90.37052056 52.17689465 -85.78125 48.296875 C-80.92617616 44.76204054 -76.88393615 44.36174252 -71 45 C-65.64179971 46.72552213 -62.10701753 49.29366711 -58 53 C-54.993182 51.66000502 -53.00237391 50.20154709 -50.75 47.8125 C-48.41185441 45.40558542 -46.04842283 43.12027956 -43.5 40.9375 C-39.50924372 37.49479729 -35.65873633 33.91455396 -31.8125 30.3125 C-30.84244019 29.40419434 -30.84244019 29.40419434 -29.8527832 28.47753906 C-28.54018445 27.24839095 -27.22760305 26.0192243 -25.91503906 24.79003906 C-23.01499273 22.07928693 -20.10361726 19.38094623 -17.1875 16.6875 C-16.39678101 15.95648071 -16.39678101 15.95648071 -15.59008789 15.21069336 C-11.38461856 11.33241099 -7.12148063 7.52311036 -2.828125 3.7421875 C-0.91843849 2.11934732 -0.91843849 2.11934732 0 0 Z " fill="#FAFAFA" transform="translate(183,306)"/>
<path d="M0 0 C5.41294905 2.66808482 8.59714601 7.19429202 11.25 12.5 C11.98648952 19.92802282 12.1404862 25.83381026 7.34375 31.81640625 C5.88681122 33.72443805 5.88681122 33.72443805 6.25 37.5 C8.19016195 39.76253642 10.09929572 41.77012575 12.25 43.8125 C12.84506348 44.39209473 13.44012695 44.97168945 14.05322266 45.56884766 C17.75767349 49.15259957 21.54974998 52.6143142 25.48046875 55.94921875 C27.99320732 58.1513318 30.30078605 60.53910323 32.640625 62.921875 C34.71409701 64.95508542 36.93682856 66.7475974 39.25 68.5 C38.62065342 72.31065897 37.48923 75.53147354 35.9375 79.0625 C32.70414498 86.65385527 29.72770474 94.35784686 28.25 102.5 C26.59847735 101.08932441 24.94777896 99.6776747 23.30078125 98.26171875 C21.98929895 97.13509301 20.67450056 96.01230872 19.35546875 94.89453125 C14.56367111 90.78588195 10.12645493 86.39937347 5.69140625 81.91015625 C2.98231895 79.23574527 0.15350419 76.76075458 -2.7421875 74.29296875 C-5.8439882 71.52307279 -8.70116555 68.51998777 -11.57421875 65.515625 C-13.81815867 63.43685839 -16.08013953 61.97754099 -18.75 60.5 C-19.61625 61.28375 -20.4825 62.0675 -21.375 62.875 C-26.76039401 67.28577514 -32.16540255 68.02895809 -39 67.87109375 C-44.35698995 67.14820448 -48.0158938 64.72276954 -51.31640625 60.4921875 C-55.32306997 54.30525947 -56.70209027 48.86502011 -55.75 41.5 C-54.5372262 38.40552335 -52.87552003 36.03972393 -50.75 33.5 C-50.28851563 32.91992188 -49.82703125 32.33984375 -49.3515625 31.7421875 C-44.05068232 26.17222711 -37.07611168 26.08934047 -29.75 25.5 C-29.80800781 24.7265625 -29.86601563 23.953125 -29.92578125 23.15625 C-30.24340433 15.82369431 -29.69880269 11.06901817 -24.75 5.5 C-17.5066666 -1.7433334 -9.70849723 -3.71255562 0 0 Z " fill="#FAFAFA" transform="translate(108.75,80.5)"/>
<path d="M0 0 C5.17390642 2.54156806 10.02809671 6.83642304 12.05859375 12.359375 C12.47499056 15.17647933 12.46844006 17.90351432 12.4375 20.75 C12.42847656 21.82765625 12.41945313 22.9053125 12.41015625 24.015625 C12.39855469 24.83546875 12.38695312 25.6553125 12.375 26.5 C13.0040625 26.45359375 13.633125 26.4071875 14.28125 26.359375 C20.59337536 26.09320104 25.2355269 26.66663267 30.375 30.5 C35.30067004 35.24429847 38.45726093 39.04802147 38.75 46.0625 C38.63848319 53.00695576 36.28627801 58.40368314 31.53125 63.4609375 C25.94730286 67.89892534 20.5396351 68.27638675 13.5546875 67.9609375 C9.56440492 67.38249359 7.33320019 66.23064633 4.375 63.5 C3.42625 62.7575 2.4775 62.015 1.5 61.25 C0.79875 60.6725 0.0975 60.095 -0.625 59.5 C-0.625 60.16 -0.625 60.82 -0.625 61.5 C-2.10473633 62.97387695 -2.10473633 62.97387695 -4.14453125 64.67578125 C-8.32131387 68.22820419 -12.3282703 71.92176834 -16.3125 75.6875 C-21.96726559 81.01330696 -27.644899 86.31147911 -33.37573242 91.55541992 C-35.77635396 93.75958736 -38.09854771 95.99043601 -40.36328125 98.3359375 C-42.625 100.5 -42.625 100.5 -44.625 100.5 C-44.83253906 99.49582031 -45.04007812 98.49164063 -45.25390625 97.45703125 C-47.16260835 88.80623221 -49.62418875 81.80386401 -54.234375 74.171875 C-55.625 71.5 -55.625 71.5 -55.625 67.5 C-54.39428711 65.89111328 -54.39428711 65.89111328 -52.65234375 64.3203125 C-52.00676514 63.72750488 -51.36118652 63.13469727 -50.69604492 62.52392578 C-49.9919751 61.89728027 -49.28790527 61.27063477 -48.5625 60.625 C-47.09867842 59.29197397 -45.63514399 57.95863258 -44.171875 56.625 C-43.41970703 55.94566406 -42.66753906 55.26632813 -41.89257812 54.56640625 C-39.67875422 52.54898533 -37.49842629 50.50159079 -35.328125 48.4375 C-34.65273682 47.7966748 -33.97734863 47.15584961 -33.28149414 46.49560547 C-31.98925817 45.26794124 -30.6993011 44.03787288 -29.41186523 42.80517578 C-28.82606689 42.2532959 -28.24026855 41.70141602 -27.63671875 41.1328125 C-26.87041138 40.40408936 -26.87041138 40.40408936 -26.08862305 39.66064453 C-24.625 38.5 -24.625 38.5 -21.625 37.5 C-22.223125 36.46875 -22.82125 35.4375 -23.4375 34.375 C-23.98083984 33.40240234 -23.98083984 33.40240234 -24.53515625 32.41015625 C-25.42783303 30.84557221 -26.39206175 29.32201232 -27.375 27.8125 C-29.29206999 22.73226452 -29.28872582 17.86142965 -28.625 12.5 C-26.9375 9.0625 -26.9375 9.0625 -24.625 6.5 C-23.84125 5.613125 -23.0575 4.72625 -22.25 3.8125 C-15.41263006 -2.21089733 -8.43455415 -3.23300628 0 0 Z " fill="#FAFAFA" transform="translate(408.625,81.5)"/>
<path d="M0 0 C2.32244247 -0.37604749 2.32244247 -0.37604749 5.2977438 -0.37752342 C6.42849596 -0.38534666 7.55924813 -0.39316991 8.72426552 -0.40123022 C10.60345832 -0.39119197 10.60345832 -0.39119197 12.52061462 -0.38095093 C13.85664187 -0.38440468 15.19266628 -0.38916734 16.52868468 -0.39513266 C20.21256092 -0.40771148 23.89620545 -0.40144128 27.58008277 -0.39217401 C31.54812025 -0.38541177 35.51611669 -0.39585069 39.48414612 -0.40411377 C47.26275401 -0.417484 55.04127527 -0.41455867 62.81988662 -0.40587585 C69.13990138 -0.39911212 75.45989179 -0.39817689 81.77990913 -0.4014473 C82.67798903 -0.401907 83.57606892 -0.40236669 84.50136336 -0.40284032 C86.3255711 -0.40379946 88.14977884 -0.4047721 89.97398657 -0.4057581 C107.09742518 -0.41432175 124.22081568 -0.40446284 141.34424639 -0.388357 C156.04812522 -0.37495522 170.751933 -0.37727887 185.45581055 -0.39111328 C202.51468485 -0.40715583 219.57351692 -0.41349528 236.63239771 -0.40427649 C238.45035683 -0.40332081 240.26831596 -0.40237769 242.0862751 -0.4014473 C242.98083472 -0.40098447 243.87539433 -0.40052164 244.79706181 -0.40004479 C251.1115386 -0.39745075 257.42598869 -0.40183485 263.74046135 -0.40888596 C271.43285325 -0.41728656 279.12515328 -0.41505134 286.81753462 -0.39904372 C290.7449634 -0.39114117 294.67223883 -0.38810294 298.5996666 -0.39799118 C302.19152238 -0.40689797 305.78308194 -0.40207221 309.37491066 -0.38605852 C311.29727104 -0.38109332 313.21965181 -0.39094317 315.14199108 -0.40123022 C316.27535099 -0.39340697 317.40871091 -0.38558373 318.57641506 -0.37752342 C319.55842685 -0.37703637 320.54043864 -0.37654931 321.55220836 -0.37604749 C324 0 324 0 325.81944281 1.30484521 C327.77540271 4.11339597 327.2949956 6.69604924 327 10 C326.34 10.99 325.68 11.98 325 13 C322.6711455 13.37604749 322.6711455 13.37604749 319.68663883 13.37752342 C318.55240327 13.38534666 317.41816771 13.39316991 316.24956137 13.40123022 C314.99287522 13.39453805 313.73618906 13.38784589 312.44142151 13.38095093 C311.10126947 13.38440468 309.76112027 13.38916733 308.42097706 13.39513266 C304.72569947 13.40771157 301.03065289 13.40144123 297.33537424 13.39217401 C293.35506676 13.38541181 289.37480019 13.39585067 285.39450073 13.40411377 C277.59182946 13.41748404 269.78924455 13.41455865 261.98656983 13.40587585 C255.64700894 13.39911214 249.30747232 13.39817688 242.96790886 13.4014473 C241.61662598 13.40213684 241.61662598 13.40213684 240.23804445 13.40284032 C238.40819971 13.40379946 236.57835497 13.4047721 234.74851023 13.4057581 C217.57213656 13.41432176 200.39581085 13.40446282 183.21944504 13.388357 C168.47008451 13.37495521 153.7207948 13.37727887 138.97143555 13.39111328 C121.85982357 13.4071558 104.74825369 13.4134953 87.63663524 13.40427649 C85.81305914 13.40332081 83.98948303 13.40237769 82.16590691 13.4014473 C80.81992132 13.40075306 80.81992132 13.40075306 79.4467441 13.40004479 C73.11273068 13.39745074 66.77874387 13.40183487 60.44473457 13.40888596 C52.7285542 13.41728653 45.01246542 13.41505142 37.29629559 13.39904372 C33.35671536 13.39114112 29.41728803 13.38810302 25.47770882 13.39799118 C21.87475082 13.40689787 18.27208815 13.40207237 14.66915714 13.38605852 C12.74083187 13.38109324 10.81248626 13.39094326 8.88418204 13.40123022 C7.74733873 13.39340697 6.61049542 13.38558373 5.43920231 13.37752342 C4.45415276 13.37703637 3.4691032 13.37654931 2.45420367 13.37604749 C0 13 0 13 -1.85166889 11.69515479 C-3 10 -3 10 -2.8125 6.5 C-2 3 -2 3 0 0 Z " fill="#FBCF21" transform="translate(90,198)"/>
<path d="M0 0 C6.47058412 4.35075041 12.73799894 10.0516921 14.73046875 17.8359375 C15.98144349 28.47517983 14.75542628 36.34430455 8.19140625 44.82421875 C2.95270065 50.62155409 -3.14382889 54.29435651 -10.9296875 55.31640625 C-18.8692283 55.61046332 -25.09262693 55.06998754 -31.26953125 49.8359375 C-39.35086717 41.95414074 -43.47721715 35.49944732 -43.64453125 24.1484375 C-43.66611398 15.80811803 -41.99130257 10.77336286 -36.1796875 4.625 C-25.35052901 -5.63030565 -13.14948828 -7.39984413 0 0 Z " fill="#030303" transform="translate(222.26953125,227.1640625)"/>
<path d="M0 0 C0.928125 0.598125 1.85625 1.19625 2.8125 1.8125 C9.77711238 8.77711238 11.32887797 15.50195107 11.38720703 25.14257812 C11.25130069 31.46451359 9.54525308 35.85517363 6 41 C5.54238281 41.66773438 5.08476562 42.33546875 4.61328125 43.0234375 C0.45255461 48.4266825 -4.63776837 50.87925612 -11 53 C-21.54909109 53.90251691 -29.82000846 52.48027806 -38.3125 46 C-44.89870868 39.70769921 -47.26356717 31.74191286 -47.5625 22.8125 C-47.183617 13.75919037 -44.52659425 7.64401628 -37.859375 1.50390625 C-26.80054133 -7.44073863 -11.77199072 -7.61976885 0 0 Z " fill="#030303" transform="translate(312,229)"/>
<path d="M0 0 C15.70579464 5.59536247 28.14662096 22.54353583 37 36 C37.58652344 36.87785156 38.17304688 37.75570312 38.77734375 38.66015625 C40 41 40 41 40 45 C-23.69 45 -87.38 45 -153 45 C-152.67 44.01 -152.34 43.02 -152 42 C-152 42.66 -152 43.32 -152 44 C-137.48 43.67 -122.96 43.34 -108 43 C-109.32 42.34 -110.64 41.68 -112 41 C-112.3807752 36.03527722 -111.50762757 33.48826802 -108.75 29.375 C-108.14671875 28.45460937 -107.5434375 27.53421875 -106.921875 26.5859375 C-105.09445606 24.12709331 -103.31730798 22.00390157 -101 20 C-98.75 20.25 -98.75 20.25 -97 21 C-97.71347364 26.00323387 -99.88490383 29.24609211 -102.625 33.40234375 C-104.39374827 36.41282263 -104.39374827 36.41282263 -105 42 C-58.47 42.495 -58.47 42.495 -11 43 C-11 42.34 -11 41.68 -11 41 C-8.525 40.505 -8.525 40.505 -6 40 C-6.43173504 33.84777564 -7.65405342 30.18082051 -11 25 C-12.32 25 -13.64 25 -15 25 C-15 24.34 -15 23.68 -15 23 C-13.35 23 -11.7 23 -10 23 C-9.01 24.98 -9.01 24.98 -8 27 C-7.34 27 -6.68 27 -6 27 C-5.67 28.65 -5.34 30.3 -5 32 C-3.02 31.505 -3.02 31.505 -1 31 C-1.33 25.72 -1.66 20.44 -2 15 C0.97 15 3.94 15 7 15 C6.67 13.68 6.34 12.36 6 11 C7.65 11 9.3 11 11 11 C11.12375 12.2375 11.2475 13.475 11.375 14.75 C11.75987523 17.90709245 12.39687075 20.22124263 14 23 C14 23.66 14 24.32 14 25 C14.66 25 15.32 25 16 25 C16.33 26.32 16.66 27.64 17 29 C19.99324263 27.9024777 20.84610901 27.32317108 22.25 24.375 C22.62125 23.199375 22.62125 23.199375 23 22 C20.45395403 18.47618313 20.45395403 18.47618313 17 16 C17 15.34 17 14.68 17 14 C16.360625 13.731875 15.72125 13.46375 15.0625 13.1875 C13 12 13 12 12 9 C8.50765756 8.90021879 5.40562852 9.22157062 2 10 C2.33 9.01 2.66 8.02 3 7 C3.66 6.67 4.32 6.34 5 6 C4.175 5.38125 3.35 4.7625 2.5 4.125 C1.675 3.42375 0.85 2.7225 0 2 C0 1.34 0 0.68 0 0 Z " fill="#FACF22" transform="translate(307,114)"/>
<path d="M0 0 C2.32244247 -0.37604749 2.32244247 -0.37604749 5.2977438 -0.37752342 C6.42849596 -0.38534666 7.55924813 -0.39316991 8.72426552 -0.40123022 C10.60345832 -0.39119197 10.60345832 -0.39119197 12.52061462 -0.38095093 C13.85664187 -0.38440468 15.19266628 -0.38916734 16.52868468 -0.39513266 C20.21256092 -0.40771148 23.89620545 -0.40144128 27.58008277 -0.39217401 C31.54812025 -0.38541177 35.51611669 -0.39585069 39.48414612 -0.40411377 C47.26275401 -0.417484 55.04127527 -0.41455867 62.81988662 -0.40587585 C69.13990138 -0.39911212 75.45989179 -0.39817689 81.77990913 -0.4014473 C82.67798903 -0.401907 83.57606892 -0.40236669 84.50136336 -0.40284032 C86.3255711 -0.40379946 88.14977884 -0.4047721 89.97398657 -0.4057581 C107.09742518 -0.41432175 124.22081568 -0.40446284 141.34424639 -0.388357 C156.04812522 -0.37495522 170.751933 -0.37727887 185.45581055 -0.39111328 C202.51468485 -0.40715583 219.57351692 -0.41349528 236.63239771 -0.40427649 C238.45035683 -0.40332081 240.26831596 -0.40237769 242.0862751 -0.4014473 C242.98083472 -0.40098447 243.87539433 -0.40052164 244.79706181 -0.40004479 C251.1115386 -0.39745075 257.42598869 -0.40183485 263.74046135 -0.40888596 C271.43285325 -0.41728656 279.12515328 -0.41505134 286.81753462 -0.39904372 C290.7449634 -0.39114117 294.67223883 -0.38810294 298.5996666 -0.39799118 C302.19152238 -0.40689797 305.78308194 -0.40207221 309.37491066 -0.38605852 C311.29727104 -0.38109332 313.21965181 -0.39094317 315.14199108 -0.40123022 C316.27535099 -0.39340697 317.40871091 -0.38558373 318.57641506 -0.37752342 C319.55842685 -0.37703637 320.54043864 -0.37654931 321.55220836 -0.37604749 C324 0 324 0 325.81944281 1.30484521 C327.77540271 4.11339597 327.2949956 6.69604924 327 10 C326.34 10.99 325.68 11.98 325 13 C322.6711455 13.37604749 322.6711455 13.37604749 319.68663883 13.37752342 C318.55240327 13.38534666 317.41816771 13.39316991 316.24956137 13.40123022 C314.99287522 13.39453805 313.73618906 13.38784589 312.44142151 13.38095093 C311.10126947 13.38440468 309.76112027 13.38916733 308.42097706 13.39513266 C304.72569947 13.40771157 301.03065289 13.40144123 297.33537424 13.39217401 C293.35506676 13.38541181 289.37480019 13.39585067 285.39450073 13.40411377 C277.59182946 13.41748404 269.78924455 13.41455865 261.98656983 13.40587585 C255.64700894 13.39911214 249.30747232 13.39817688 242.96790886 13.4014473 C241.61662598 13.40213684 241.61662598 13.40213684 240.23804445 13.40284032 C238.40819971 13.40379946 236.57835497 13.4047721 234.74851023 13.4057581 C217.57213656 13.41432176 200.39581085 13.40446282 183.21944504 13.388357 C168.47008451 13.37495521 153.7207948 13.37727887 138.97143555 13.39111328 C121.85982357 13.4071558 104.74825369 13.4134953 87.63663524 13.40427649 C85.81305914 13.40332081 83.98948303 13.40237769 82.16590691 13.4014473 C80.81992132 13.40075306 80.81992132 13.40075306 79.4467441 13.40004479 C73.11273068 13.39745074 66.77874387 13.40183487 60.44473457 13.40888596 C52.7285542 13.41728653 45.01246542 13.41505142 37.29629559 13.39904372 C33.35671536 13.39114112 29.41728803 13.38810302 25.47770882 13.39799118 C21.87475082 13.40689787 18.27208815 13.40207237 14.66915714 13.38605852 C12.74083187 13.38109324 10.81248626 13.39094326 8.88418204 13.40123022 C7.74733873 13.39340697 6.61049542 13.38558373 5.43920231 13.37752342 C4.45415276 13.37703637 3.4691032 13.37654931 2.45420367 13.37604749 C0 13 0 13 -1.85166889 11.69515479 C-3 10 -3 10 -2.8125 6.5 C-2 3 -2 3 0 0 Z M1 2 C-1.35014158 4.837578 -1.35014158 4.837578 -0.6875 8.125 C-0.29355679 10.88086422 -0.29355679 10.88086422 1 12 C2.70691619 12.09999445 4.41800265 12.12923757 6.12784386 12.13142776 C7.80531025 12.13718948 7.80531025 12.13718948 9.51666486 12.1430676 C10.76070006 12.14220112 12.00473527 12.14133463 13.28646851 12.14044189 C15.25080556 12.14489858 15.25080556 12.14489858 17.25482619 12.1494453 C20.90668409 12.15754417 24.55852237 12.15930646 28.21038818 12.16004276 C32.14230379 12.16188832 36.07420909 12.1694331 40.00611877 12.17617798 C48.61135704 12.18978223 57.21659067 12.19578925 65.8218379 12.20018864 C71.19072157 12.20294749 76.55960343 12.20718417 81.92848587 12.21169281 C96.78109054 12.22388813 111.63369376 12.23418697 126.48630333 12.2375679 C127.43761673 12.23778747 128.38893014 12.23800703 129.36907122 12.23823325 C130.32271505 12.23845153 131.27635888 12.23866981 132.258901 12.2388947 C134.19148088 12.23933817 136.12406075 12.23978474 138.05664062 12.24023438 C139.01527553 12.2404558 139.97391044 12.24067723 140.96159489 12.24090537 C156.50182261 12.24485505 172.04200348 12.26231304 187.58221309 12.2855939 C203.52108602 12.30928008 219.45993542 12.3217685 235.39882624 12.32293582 C244.35440471 12.32385412 253.30992215 12.32964512 262.26548386 12.34775543 C269.89018237 12.3631196 277.51480101 12.36829877 285.13951205 12.36001733 C289.0325131 12.3560977 292.92535312 12.35710389 296.81833458 12.37107468 C301.03219546 12.38605923 305.24568994 12.3779861 309.45956421 12.36749268 C310.69913797 12.37554908 311.93871173 12.38360548 313.21584833 12.39190602 C314.33937475 12.38531618 315.46290118 12.37872633 316.62047386 12.3719368 C317.59391444 12.37253389 318.56735501 12.37313097 319.57029378 12.37374616 C322.04641223 12.18834391 322.04641223 12.18834391 323.81668913 10.6369102 C325.4813306 8.33416063 325.35538892 6.77203356 325 4 C322.40027643 1.40027643 321.35102097 1.74873854 317.73069763 1.74552441 C316.60629556 1.73969221 315.48189348 1.73386002 314.32341862 1.72785109 C313.07772319 1.73163042 311.83202776 1.73540974 310.54858398 1.73930359 C308.57578162 1.73356527 308.57578162 1.73356527 306.56312466 1.72771102 C302.90016812 1.71737733 299.23730887 1.71962639 295.57434416 1.72389162 C291.62882637 1.72634913 287.6833326 1.7173569 283.73782349 1.70985413 C276.00368662 1.6970782 268.26958442 1.695317 260.53543878 1.69765439 C254.25212736 1.69943436 247.96882651 1.69769484 241.68551636 1.69342995 C240.34628952 1.69253716 240.34628952 1.69253716 238.98000759 1.69162634 C237.16650812 1.69041465 235.35300865 1.68920051 233.53950918 1.68798397 C216.51721463 1.67709744 199.49493988 1.67927628 182.47264421 1.68536881 C166.88330227 1.69053993 151.29402278 1.67927938 135.7046932 1.66027059 C119.71493883 1.64092231 103.72521405 1.63263083 87.73544788 1.63639385 C78.75141661 1.63831035 69.76743851 1.63577472 60.78341675 1.62167931 C53.13601742 1.60980285 45.48870401 1.60831844 37.84130359 1.62046947 C33.93627221 1.62638437 30.03139826 1.62738617 26.12637711 1.61546707 C21.90126352 1.60272034 17.67652934 1.61301033 13.45141602 1.6257782 C12.20572059 1.61840391 10.96002516 1.61102963 9.67658138 1.60343188 C7.98997827 1.6142417 7.98997827 1.6142417 6.26930237 1.62526989 C4.80482839 1.62518737 4.80482839 1.62518737 3.31076908 1.62510318 C2.16693839 1.8106771 2.16693839 1.8106771 1 2 Z " fill="#D3B83E" transform="translate(90,198)"/>
<path d="M0 0 C66.99 0 133.98 0 203 0 C208.23072796 11.76913791 209 13.58668599 209 27 C138.05 27 67.1 27 -6 27 C-6 20.36291216 -5.7912049 17.20941898 -4.125 11.25 C-3.95097656 10.60417969 -3.77695313 9.95835937 -3.59765625 9.29296875 C-2.66754729 5.93768681 -1.56913987 3.13827973 0 0 Z M1 2 C-1.24120972 5.36181459 -1.83472633 7.93976152 -2.6875 11.875 C-2.95949219 13.08929688 -3.23148438 14.30359375 -3.51171875 15.5546875 C-3.97005362 18.78869833 -3.88087309 20.89034062 -3 24 C1.11998996 25.14776124 5.09050278 25.1358468 9.33953857 25.12025452 C10.61260813 25.12153615 10.61260813 25.12153615 11.91139627 25.12284368 C14.75963711 25.12449281 17.60781926 25.11898635 20.45605469 25.11352539 C22.49602761 25.11324337 24.53600064 25.11340154 26.57597351 25.1139679 C32.11895716 25.11425529 37.66191925 25.10836784 43.20489788 25.10139394 C48.99583007 25.09515083 54.78676272 25.09455584 60.57769775 25.09336853 C71.54589439 25.09025805 82.51408109 25.08204845 93.48227334 25.07201904 C105.96822153 25.06084915 118.45417019 25.05534524 130.94012213 25.05032361 C156.6267536 25.03986562 182.31337624 25.02227162 208 25 C207.67 23.02 207.34 21.04 207 19 C206.67 19 206.34 19 206 19 C205.01 12.07 205.01 12.07 204 5 C203.34 5 202.68 5 202 5 C202 4.01 202 3.02 202 2 C175.82741598 1.93000662 149.65484593 1.87705934 123.48218727 1.84456348 C111.33054099 1.82907596 99.17895277 1.8079505 87.02734375 1.77368164 C76.43949578 1.74383692 65.85168984 1.72443873 55.26380098 1.71773452 C49.65442795 1.71381389 44.04517519 1.70456091 38.43584061 1.68280983 C33.16148388 1.66252243 27.88729754 1.65615043 22.6129055 1.66067696 C20.67221718 1.65984827 18.73152346 1.65383671 16.79086876 1.64238358 C14.15078185 1.62756047 11.51134686 1.63100876 8.87124634 1.63923645 C8.09499141 1.63049793 7.31873649 1.6217594 6.51895869 1.61275607 C4.17121069 1.59711774 4.17121069 1.59711774 1 2 Z " fill="#D20F1B" transform="translate(149,165)"/>
<path d="M0 0 C26.43336296 -0.04666206 52.86671978 -0.08196036 79.30011559 -0.10362434 C91.57281239 -0.11394939 103.84548365 -0.12803312 116.11816406 -0.15087891 C126.81148725 -0.17077525 137.50479193 -0.18370749 148.19813311 -0.18817699 C153.86336787 -0.19079075 159.5285497 -0.19695959 165.19376755 -0.21146011 C170.52062872 -0.22498476 175.8474149 -0.22923306 181.17429161 -0.22621536 C183.13432535 -0.22676783 185.09436147 -0.23077561 187.05438042 -0.23841095 C189.72062257 -0.24829223 192.38657779 -0.24599402 195.05282593 -0.24050903 C196.22888116 -0.24924756 196.22888116 -0.24924756 197.42869508 -0.25816262 C202.77175758 -0.22824242 202.77175758 -0.22824242 205 2 C209.11539074 10.97621074 210.05997662 20.24780212 210 30 C208.17870284 31.82129716 205.65158441 31.12802483 203.22685009 31.1384055 C202.39068234 31.1368569 201.55451459 31.1353083 200.69300842 31.13371277 C199.81151782 31.13597833 198.93002722 31.13824388 198.02182478 31.14057809 C195.04456612 31.14694848 192.06735264 31.14608679 189.09008789 31.14526367 C186.96513306 31.14825327 184.84017878 31.15165532 182.71522522 31.15544128 C176.92607568 31.16430566 171.1369409 31.16662041 165.34778523 31.16725707 C160.52389984 31.16820409 155.70001792 31.17187997 150.87613386 31.17542917 C139.50050999 31.18358293 128.12489404 31.18601255 116.74926758 31.18530273 C104.99373685 31.18470164 93.23825196 31.19525771 81.48273283 31.2110464 C71.408028 31.22409809 61.3333382 31.22948763 51.25862497 31.22884732 C45.23347168 31.22859164 39.2083591 31.23148118 33.18321419 31.24202538 C27.51899497 31.25166663 21.85485572 31.25181301 16.19063377 31.24450874 C14.10643523 31.24345794 12.02223182 31.24585488 9.93804169 31.2518692 C7.10325708 31.25952248 4.26875326 31.25498894 1.43397522 31.24723816 C0.60003819 31.25238172 -0.23389884 31.25752529 -1.09310669 31.26282471 C-6.77172881 31.22827119 -6.77172881 31.22827119 -9 29 C-9.59188756 20.71357414 -7.86159413 12.76718407 -5 5 C-4.34 5 -3.68 5 -3 5 C-3 4.01 -3 3.02 -3 2 C-2.34 2 -1.68 2 -1 2 C-1.60074836 4.47808698 -2.25782659 6.93247283 -2.9375 9.390625 C-3.11023438 10.01839844 -3.28296875 10.64617187 -3.4609375 11.29296875 C-4.14850878 13.78915145 -4.84166986 16.28377526 -5.53515625 18.77832031 C-6.24007163 22.14740116 -6.57306799 25.58454388 -7 29 C63.95 29 134.9 29 208 29 C207.46924445 16.42089276 207.46924445 16.42089276 202 3 C135.34 2.67 68.68 2.34 0 2 C0 1.34 0 0.68 0 0 Z " fill="#390000" transform="translate(150,163)"/>
<path d="M0 0 C0.56203125 0.12117188 1.1240625 0.24234375 1.703125 0.3671875 C11.39662116 2.2999398 21.16728989 3.0761212 31 4 C31 11.26 31 18.52 31 26 C19.14737908 25.67965889 9.21880313 23.76274214 -2 20 C-2.23668569 12.96517526 -1.7879537 6.8165735 0 0 Z " fill="#F3F3F3" transform="translate(217,340)"/>
<path d="M0 0 C1.42002108 6.7831364 2.22731216 13.06697907 2 20 C-0.77747195 21.51897281 -3.17817916 22.35908197 -6.30078125 22.8515625 C-7.11353516 22.98046875 -7.92628906 23.109375 -8.76367188 23.2421875 C-9.60478516 23.36851562 -10.44589844 23.49484375 -11.3125 23.625 C-12.14201172 23.7590625 -12.97152344 23.893125 -13.82617188 24.03125 C-18.71380627 24.78734814 -22.95228831 25 -28 25 C-28 17.74 -28 10.48 -28 3 C-19.1875 2.0625 -19.1875 2.0625 -16.42260742 1.77368164 C-15.69920166 1.69496826 -14.9757959 1.61625488 -14.23046875 1.53515625 C-13.49207764 1.456604 -12.75368652 1.37805176 -11.99291992 1.29711914 C-2.92264395 -0.05514423 -2.92264395 -0.05514423 0 0 Z " fill="#F3F3F3" transform="translate(281,341)"/>
<path d="M0 0 C8.91 0.66 17.82 1.32 27 2 C27 9.59 27 17.18 27 25 C17.9966239 25 17.9966239 25 14.421875 24.37890625 C13.65359375 24.24806641 12.8853125 24.11722656 12.09375 23.98242188 C11.3203125 23.84384766 10.546875 23.70527344 9.75 23.5625 C8.96109375 23.42779297 8.1721875 23.29308594 7.359375 23.15429688 C3.867262 22.54966582 0.43219375 21.88970366 -3 21 C-2.29043161 13.90431611 -1.17853777 7.07122663 0 0 Z " fill="#F3F3F3" transform="translate(221,314)"/>
<path d="M0 0 C63.69 0 127.38 0 193 0 C192.67 0.99 192.34 1.98 192 3 C127.65 3 63.3 3 -3 3 C-2.67 2.34 -2.34 1.68 -2 1 C-1.34 1.33 -0.68 1.66 0 2 C0 1.34 0 0.68 0 0 Z " fill="#070100" transform="translate(154,160)"/>
<path d="M0 0 C0.34064504 2.16552915 0.67214255 4.33249797 1 6.5 C1.185625 7.7065625 1.37125 8.913125 1.5625 10.15625 C2.01939038 14.1703583 2.07140463 17.96563826 2 22 C-1.01982884 22.50682442 -4.04062817 23.00563335 -7.0625 23.5 C-7.91005859 23.64308594 -8.75761719 23.78617187 -9.63085938 23.93359375 C-10.46552734 24.06894531 -11.30019531 24.20429688 -12.16015625 24.34375 C-12.91949463 24.46943359 -13.67883301 24.59511719 -14.46118164 24.72460938 C-17.62356245 25.06763905 -20.81906904 25 -24 25 C-24 17.41 -24 9.82 -24 2 C-16.8125 1.5625 -16.8125 1.5625 -14.57739258 1.43188477 C-9.64258179 1.11666998 -4.93249583 0 0 0 Z " fill="#F2F2F2" transform="translate(277,314)"/>
<path d="M0 0 C1.29272324 2.66148903 2.02401696 4.51966076 1.875 7.5 C1 10 1 10 -1.125 12.5625 C-3.29145046 14.7977015 -3.29145046 14.7977015 -2.75 17.3125 C-2.5025 17.869375 -2.255 18.42625 -2 19 C-0.08915008 18.84232655 -0.08915008 18.84232655 2 18 C3.70474587 15.74547358 5.03114868 13.38324374 6.4375 10.93359375 C6.953125 10.29550781 7.46875 9.65742188 8 9 C9.32 9 10.64 9 12 9 C12 8.34 12 7.68 12 7 C13.98 6.67 15.96 6.34 18 6 C17.66666667 7.33333333 17.33333333 8.66666667 17 10 C16.814375 11.051875 16.814375 11.051875 16.625 12.125 C16 14 16 14 13 16 C13.495 17.485 13.495 17.485 14 19 C13.34 19.66 12.68 20.32 12 21 C12.66 22.32 13.32 23.64 14 25 C1.79 25 -10.42 25 -23 25 C-21.95604302 17.69230115 -21.90575462 17.44940535 -17 13 C-16.34 11.989375 -15.68 10.97875 -15 9.9375 C-12.94548604 6.91993262 -11.00111423 5.05339395 -8 3 C-7.34 3 -6.68 3 -6 3 C-6 2.34 -6 1.68 -6 1 C-3.92446352 0.4465236 -2.15634036 0 0 0 Z " fill="#FBCF21" transform="translate(180,132)"/>
<path d="M0 0 C1.04980354 2.28591025 1.89798062 4.43917134 2.6875 6.8125 C3.12449219 8.05644531 3.56148438 9.30039062 4.01171875 10.58203125 C5 14 5 14 5 18 C-0.22398575 20.13038898 -5.46649417 22.20890317 -10.75 24.1875 C-12.04164063 24.67283203 -12.04164063 24.67283203 -13.359375 25.16796875 C-16.22322448 26.07033552 -19.03146814 26.57034407 -22 27 C-22.50297572 24.06298109 -23.00249873 21.12544669 -23.5 18.1875 C-23.71462891 16.93743164 -23.71462891 16.93743164 -23.93359375 15.66210938 C-24.13662109 14.45844727 -24.13662109 14.45844727 -24.34375 13.23046875 C-24.46943359 12.49207764 -24.59511719 11.75368652 -24.72460938 10.99291992 C-25 9 -25 9 -25 6 C-23.62328125 5.61908203 -23.62328125 5.61908203 -22.21875 5.23046875 C-14.16899698 3.00519143 -14.16899698 3.00519143 -6.3125 0.1875 C-3 -1 -3 -1 0 0 Z " fill="#F5F5F5" transform="translate(307,306)"/>
<path d="M0 0 C2.01167675 5.78357065 2.22084624 10.90218999 2 17 C-20.63888889 30 -20.63888889 30 -25 30 C-26.42002108 23.2168636 -27.22731216 16.93302093 -27 10 C-26.02160156 9.61328125 -25.04320312 9.2265625 -24.03515625 8.828125 C-22.71077369 8.30249588 -21.38656651 7.77642474 -20.0625 7.25 C-19.37897461 6.97849121 -18.69544922 6.70698242 -17.99121094 6.42724609 C-13.50798681 4.63501631 -9.09393771 2.74245867 -4.734375 0.6640625 C-3 0 -3 0 0 0 Z " fill="#F5F5F5" transform="translate(314,329)"/>
<path d="M0 0 C5.05485927 0.73094706 9.59903179 2.68380904 14.3125 4.5625 C15.56643555 5.0565332 15.56643555 5.0565332 16.84570312 5.56054688 C18.89863546 6.36998877 20.94997286 7.18323457 23 8 C22.69055299 10.58373234 22.37756043 13.16695133 22.0625 15.75 C21.97548828 16.47960937 21.88847656 17.20921875 21.79882812 17.9609375 C21.37972591 21.37584442 20.882726 24.67603543 20 28 C14.63404101 27.44490079 10.58950277 25.56534559 5.875 23.125 C4.82119141 22.59712891 4.82119141 22.59712891 3.74609375 22.05859375 C0.25959619 20.28568667 -2.96534309 18.50005414 -6 16 C-4.25192871 10.53262809 -2.34205919 5.24175152 0 0 Z " fill="#F3F3F3" transform="translate(193,304)"/>
<path d="M0 0 C10.90131345 3.88371308 23.8484096 16.09139802 30 26 C30.1875 29.75 30.1875 29.75 30 33 C30.598125 33.04125 31.19625 33.0825 31.8125 33.125 C34 34 34 34 35.75 36.875 C37 40 37 40 37 43 C31.72 43 26.44 43 21 43 C21 40.03 21 37.06 21 34 C20.01 34 19.02 34 18 34 C18.33 34.66 18.66 35.32 19 36 C19.039992 37.99960012 19.04346799 40.00047242 19 42 C16.525 42.495 16.525 42.495 14 43 C13.70867187 42.31035156 13.41734375 41.62070313 13.1171875 40.91015625 C9.9870511 33.73446621 6.59818065 26.59818065 1 21 C1.375 18.875 1.375 18.875 2 17 C4.23828125 16.703125 4.23828125 16.703125 7 17 C9.16796875 19.046875 9.16796875 19.046875 11.1875 21.75 C12.19876953 23.07257813 12.19876953 23.07257813 13.23046875 24.421875 C15 27 15 27 17 31 C19.97 27.535 19.97 27.535 23 24 C21.70721467 20.01391188 20.39841019 18.37888713 17 16 C17 15.34 17 14.68 17 14 C16.360625 13.731875 15.72125 13.46375 15.0625 13.1875 C13 12 13 12 12 9 C8.50765756 8.90021879 5.40562852 9.22157062 2 10 C2.33 9.01 2.66 8.02 3 7 C3.66 6.67 4.32 6.34 5 6 C4.175 5.38125 3.35 4.7625 2.5 4.125 C1.675 3.42375 0.85 2.7225 0 2 C0 1.34 0 0.68 0 0 Z " fill="#FBD022" transform="translate(307,114)"/>
<path d="M0 0 C3.42905031 1.33724907 6.76230629 2.79423246 10.08203125 4.3828125 C11.01337891 4.82753906 11.94472656 5.27226562 12.90429688 5.73046875 C13.86400391 6.19066406 14.82371094 6.65085937 15.8125 7.125 C16.79154297 7.59292969 17.77058594 8.06085938 18.77929688 8.54296875 C21.18687413 9.69390812 23.59374699 10.84629528 26 12 C25.84591662 13.73575405 25.69075753 15.47141262 25.53515625 17.20703125 C25.44886963 18.17358643 25.36258301 19.1401416 25.27368164 20.13598633 C24.92644922 23.76969157 24.4779337 27.3813591 24 31 C15.67928858 28.8103391 5.2025162 24.2025162 -1 18 C-1.0999519 15.91864863 -1.12967207 13.83374472 -1.125 11.75 C-1.12757813 10.61046875 -1.13015625 9.4709375 -1.1328125 8.296875 C-1.01609587 5.39955624 -0.66645245 2.81391036 0 0 Z " fill="#F6F6F6" transform="translate(185,326)"/>
<path d="M0 0 C26.43336296 -0.04666206 52.86671978 -0.08196036 79.30011559 -0.10362434 C91.57281239 -0.11394939 103.84548365 -0.12803312 116.11816406 -0.15087891 C126.81148725 -0.17077525 137.50479193 -0.18370749 148.19813311 -0.18817699 C153.86336787 -0.19079075 159.5285497 -0.19695959 165.19376755 -0.21146011 C170.52062872 -0.22498476 175.8474149 -0.22923306 181.17429161 -0.22621536 C183.13432535 -0.22676783 185.09436147 -0.23077561 187.05438042 -0.23841095 C189.72062257 -0.24829223 192.38657779 -0.24599402 195.05282593 -0.24050903 C196.22888116 -0.24924756 196.22888116 -0.24924756 197.42869508 -0.25816262 C202.77175758 -0.22824242 202.77175758 -0.22824242 205 2 C209.2149657 11.02987177 209.47912348 19.25782249 209 29 C208.67 29 208.34 29 208 29 C207.98582031 28.29617187 207.97164062 27.59234375 207.95703125 26.8671875 C207.50637708 17.53742826 205.38655166 12.48234465 202 3 C135.34 2.67 68.68 2.34 0 2 C0 1.34 0 0.68 0 0 Z " fill="#510004" transform="translate(150,163)"/>
<path d="M0 0 C0.495 0.99 0.495 0.99 1 2 C0.34 2 -0.32 2 -1 2 C-0.505 4.475 -0.505 4.475 0 7 C-0.99 6.67 -1.98 6.34 -3 6 C-3.99 6.66 -4.98 7.32 -6 8 C-5.7525 8.556875 -5.505 9.11375 -5.25 9.6875 C-5 12 -5 12 -6.9375 14.75 C-7.618125 15.4925 -8.29875 16.235 -9 17 C-8.34 17.33 -7.68 17.66 -7 18 C-7.66 18 -8.32 18 -9 18 C-8.67 18.99 -8.34 19.98 -8 21 C-7.62488281 20.55527344 -7.24976563 20.11054688 -6.86328125 19.65234375 C-5.31321937 17.93829547 -3.84043317 16.40079808 -2 15 C0.875 15.125 0.875 15.125 3 16 C2.49582942 20.13277858 1.53014298 21.87732894 -1.5625 24.625 C-6.44984574 29.23837156 -10.18979627 34.48736482 -14 40 C-15.32 39.67 -16.64 39.34 -18 39 C-18.6484375 37.22265625 -18.6484375 37.22265625 -19 35 C-18.0390625 33.18359375 -18.0390625 33.18359375 -16.625 31.4375 C-14.80605026 29.15619153 -13.94649117 27.83947352 -13 25 C-13.66 24.67 -14.32 24.34 -15 24 C-15.33 23.34 -15.66 22.68 -16 22 C-15.67 21.34 -15.34 20.68 -15 20 C-16.98 20.33 -18.96 20.66 -21 21 C-21 21.66 -21 22.32 -21 23 C-22.57421875 24.2265625 -22.57421875 24.2265625 -24.6875 25.625 C-28.60020153 28.41781169 -30.69592764 31.22247423 -32.89453125 35.4609375 C-33.25933594 35.96882813 -33.62414062 36.47671875 -34 37 C-34.99 37 -35.98 37 -37 37 C-32.27975468 29.11300782 -26.30133217 22.61686279 -20 16 C-19.40316406 15.33871094 -18.80632812 14.67742187 -18.19140625 13.99609375 C-12.91882455 8.32905457 -6.41509781 4.25422276 0 0 Z M-18 23 C-16 24 -16 24 -16 24 Z " fill="#F9CF24" transform="translate(195,112)"/>
<path d="M0 0 C1.98 0.495 1.98 0.495 4 1 C4.12834229 1.58773193 4.25668457 2.17546387 4.38891602 2.78100586 C5.15431537 5.56035654 6.48179409 7.94932324 7.83251953 10.48388672 C15.14853872 24.24627897 15.14853872 24.24627897 15 32 C14.01 32.99 14.01 32.99 13 34 C13 33.01 13 32.02 13 31 C12.38511719 30.79503906 11.77023437 30.59007812 11.13671875 30.37890625 C8.09365916 28.41510363 7.81279896 26.36301358 6.8125 22.9375 C5.94869457 19.17329024 5.94869457 19.17329024 4 16 C1.67182036 15.63239269 -0.6618385 15.29758419 -3 15 C-3 14.34 -3 13.68 -3 13 C-66.69 12.67 -130.38 12.34 -196 12 C-195.67 11.01 -195.34 10.02 -195 9 C-195 9.66 -195 10.32 -195 11 C-131.31 11 -67.62 11 -2 11 C-2.99 8.36 -3.98 5.72 -5 3 C-3.35 3.33 -1.7 3.66 0 4 C0 2.68 0 1.36 0 0 Z " fill="#261A02" transform="translate(349,148)"/>
<path d="M0 0 C2.25 0.25 2.25 0.25 4 1 C3.28909371 5.94123753 1.19321669 9.10947953 -1.52734375 13.20703125 C-3.51338637 16.70519709 -3.51338637 16.70519709 -5 24 C43.18 24 91.36 24 141 24 C141 24.33 141 24.66 141 25 C77.31 25 13.62 25 -52 25 C-51.505 23.515 -51.505 23.515 -51 22 C-51 22.66 -51 23.32 -51 24 C-36.48 23.67 -21.96 23.34 -7 23 C-8.32 22.34 -9.64 21.68 -11 21 C-11.3807752 16.03527722 -10.50762757 13.48826802 -7.75 9.375 C-7.14671875 8.45460937 -6.5434375 7.53421875 -5.921875 6.5859375 C-4.09445606 4.12709331 -2.31730798 2.00390157 0 0 Z " fill="#C6AA4C" transform="translate(206,134)"/>
<path d="M0 0 C3.27191292 1.35815253 5.49895506 2.49895506 8 5 C8.5 8.3125 8.5 8.3125 8 12 C5.25035148 15.49279677 3.68368321 16.6972324 -0.671875 17.48046875 C-5.39454424 17.71660221 -8.16318643 17.5414676 -12.1875 14.9375 C-14.47469671 11.23066396 -14.77827347 9.2805041 -14 5 C-9.49108041 0.49108041 -6.30378906 -0.4202526 0 0 Z " fill="#0A0A0A" transform="translate(254,281)"/>
<path d="M0 0 C1.65 0 3.3 0 5 0 C5.99 1.98 5.99 1.98 7 4 C7.66 4 8.32 4 9 4 C11.35785972 8.5683532 11.42484112 12.97106679 11 18 C10.67 18.66 10.34 19.32 10 20 C14.95 20 19.9 20 25 20 C25 13.47442031 24.7129786 13.52519267 21 9 C20.75 6.1875 20.75 6.1875 21 4 C25.53761171 8.17460278 28.23579204 13.88633632 29 20 C30.65 19.67 32.3 19.34 34 19 C33.505 15.04 33.505 15.04 33 11 C33.99 11 34.98 11 36 11 C36 13.97 36 16.94 36 20 C41.28 20 46.56 20 52 20 C51.401875 18.535625 50.80375 17.07125 50.1875 15.5625 C49.85105469 14.73878906 49.51460937 13.91507813 49.16796875 13.06640625 C48.11596912 10.66627512 48.11596912 10.66627512 45 10 C45 8.02 45 6.04 45 4 C47.59330782 7.09202086 49.96315744 10.30311732 52.25 13.625 C53.03117187 14.75808594 53.03117187 14.75808594 53.828125 15.9140625 C55 18 55 18 55 21 C6.82 21 -41.36 21 -91 21 C-91 20.67 -91 20.34 -91 20 C-59.65 20 -28.3 20 4 20 C4 19.34 4 18.68 4 18 C5.65 17.67 7.3 17.34 9 17 C8.56826496 10.84777564 7.34594658 7.18082051 4 2 C2.68 2 1.36 2 0 2 C0 1.34 0 0.68 0 0 Z " fill="#F4D044" transform="translate(292,137)"/>
<path d="M0 0 C2.64 0 5.28 0 8 0 C9 6.75 9 6.75 9 9 C9.94875 8.649375 10.8975 8.29875 11.875 7.9375 C15 7 15 7 17 8 C17 8.66 17 9.32 17 10 C16.13375 10.66 15.2675 11.32 14.375 12 C10.04033584 15.47805196 7.30320427 19.98573238 5 25 C4.48903425 28.42365181 4.48903425 28.42365181 5 31 C6.32 31.66 7.64 32.32 9 33 C9 33.33 9 33.66 9 34 C-5.85 34 -20.7 34 -36 34 C-35.505 31.03 -35.505 31.03 -35 28 C-34.34 27.67 -33.68 27.34 -33 27 C-33.33 28.98 -33.66 30.96 -34 33 C-22.12 32.67 -10.24 32.34 2 32 C1.01 30.68 0.02 29.36 -1 28 C-0.01 27.67 0.98 27.34 2 27 C1.505 25.02 1.505 25.02 1 23 C2.32 22.67 3.64 22.34 5 22 C5.144375 21.236875 5.28875 20.47375 5.4375 19.6875 C6 17 6 17 7 14 C5.02 14.33 3.04 14.66 1 15 C1 15.66 1 16.32 1 17 C0.01 16.67 -0.98 16.34 -2 16 C-1.4225 15.46890625 -0.845 14.9378125 -0.25 14.390625 C0.4925 13.68421875 1.235 12.9778125 2 12.25 C2.7425 11.55390625 3.485 10.8578125 4.25 10.140625 C6.42195334 7.94468043 6.42195334 7.94468043 6 4 C0.96014269 4.44469329 -1.37634988 6.71343362 -5 10 C-5 8.68 -5 7.36 -5 6 C-4.34 6 -3.68 6 -3 6 C-3 5.34 -3 4.68 -3 4 C-2.01 4 -1.02 4 0 4 C0 2.68 0 1.36 0 0 Z " fill="#F1CB2E" transform="translate(191,124)"/>
<path d="M0 0 C0.99 0.66 1.98 1.32 3 2 C2.62746094 2.45890625 2.25492188 2.9178125 1.87109375 3.390625 C1.39800781 4.00421875 0.92492187 4.6178125 0.4375 5.25 C-0.03816406 5.85328125 -0.51382813 6.4565625 -1.00390625 7.078125 C-2.22889098 8.97811554 -2.22889098 8.97811554 -1.65234375 11.234375 C-1.43707031 11.81703125 -1.22179687 12.3996875 -1 13 C0.91084992 12.84232655 0.91084992 12.84232655 3 12 C4.70474587 9.74547358 6.03114868 7.38324374 7.4375 4.93359375 C8.2109375 3.97646484 8.2109375 3.97646484 9 3 C10.32 3 11.64 3 13 3 C13 2.34 13 1.68 13 1 C14.98 0.67 16.96 0.34 19 0 C18.66666667 1.33333333 18.33333333 2.66666667 18 4 C17.87625 4.70125 17.7525 5.4025 17.625 6.125 C17 8 17 8 14 10 C14.33 10.99 14.66 11.98 15 13 C14.34 13.66 13.68 14.32 13 15 C13.66 16.32 14.32 17.64 15 19 C12.36 19 9.72 19 7 19 C7 17.02 7 15.04 7 13 C3.88214887 13.64644661 3.88214887 13.64644661 3 16 C0.625 16.125 0.625 16.125 -2 16 C-4 14 -4 14 -4.375 11.375 C-3.8878962 6.99106584 -2.15775023 3.79532854 0 0 Z " fill="#F8CE29" transform="translate(179,138)"/>
<path d="M0 0 C0.74765625 0.23074219 1.4953125 0.46148437 2.265625 0.69921875 C1.76145442 4.83199733 0.79576798 6.57654769 -2.296875 9.32421875 C-7.18422074 13.93759031 -10.92417127 19.18658357 -14.734375 24.69921875 C-16.054375 24.36921875 -17.374375 24.03921875 -18.734375 23.69921875 C-19.48046875 22.05859375 -19.48046875 22.05859375 -19.734375 19.69921875 C-16.25084169 13.70788382 -7.47717901 -0.82248969 0 0 Z " fill="#110903" transform="translate(195.734375,127.30078125)"/>
<path d="M0 0 C2.24609375 -0.27734375 2.24609375 -0.27734375 5 0 C11.33797513 5.65342661 16.64829727 13.98823608 17.25 22.5625 C17.1675 23.366875 17.085 24.17125 17 25 C15.35 25.33 13.7 25.66 12 26 C11.70867187 25.31035156 11.41734375 24.62070313 11.1171875 23.91015625 C7.9870511 16.73446621 4.59818065 9.59818065 -1 4 C-0.625 1.875 -0.625 1.875 0 0 Z " fill="#1D1304" transform="translate(309,131)"/>
<path d="M0 0 C0.33 0.66 0.66 1.32 1 2 C1.66 2 2.32 2 3 2 C4.4783226 4.95664519 4.06032783 7.74229737 4 11 C3.01 11 2.02 11 1 11 C0.87625 11.598125 0.7525 12.19625 0.625 12.8125 C0 15 0 15 -2 18 C-7.875 17.125 -7.875 17.125 -9 16 C-9.30798337 11.58557164 -9.06633931 7.95299694 -7 4 C-3.375 2.625 -3.375 2.625 0 2 C0 1.34 0 0.68 0 0 Z " fill="#DCBE38" transform="translate(221,136)"/>
<path d="M0 0 C2.25 0.25 2.25 0.25 4 1 C3.43284951 5.23063609 1.97887282 7.96422479 -0.375 11.5 C-2.65987108 14.96133661 -4.89064466 18.42833083 -7 22 C-8.32 21.67 -9.64 21.34 -11 21 C-11.3807752 16.03527722 -10.50762757 13.48826802 -7.75 9.375 C-7.14671875 8.45460937 -6.5434375 7.53421875 -5.921875 6.5859375 C-4.09445606 4.12709331 -2.31730798 2.00390157 0 0 Z " fill="#170D03" transform="translate(206,134)"/>
<path d="M0 0 C0.99 0.33 1.98 0.66 3 1 C3.42589023 6.53657294 1.905247 10.89665983 0 16 C0.99 16 1.98 16 3 16 C4.75 17.8125 4.75 17.8125 6 20 C5.67 20.99 5.34 21.98 5 23 C0.71 23 -3.58 23 -8 23 C-6.96397445 16.47303905 -5.29231248 12.37284387 -1.2421875 7.140625 C0.24509097 4.57764198 0.23446745 2.91555178 0 0 Z " fill="#F7CF2A" transform="translate(209,134)"/>
<path d="M0 0 C4.53761171 4.17460278 7.23579204 9.88633632 8 16 C9.65 15.67 11.3 15.34 13 15 C12.67 12.36 12.34 9.72 12 7 C12.99 7 13.98 7 15 7 C15 9.97 15 12.94 15 16 C20.28 16 25.56 16 31 16 C30.401875 14.535625 29.80375 13.07125 29.1875 11.5625 C28.85105469 10.73878906 28.51460938 9.91507813 28.16796875 9.06640625 C27.11596912 6.66627512 27.11596912 6.66627512 24 6 C24 4.02 24 2.04 24 0 C26.59330782 3.09202086 28.96315744 6.30311732 31.25 9.625 C32.03117187 10.75808594 32.03117187 10.75808594 32.828125 11.9140625 C34 14 34 14 34 17 C29.56251365 17.02896822 25.12505153 17.04678788 20.6875 17.0625 C19.42486328 17.07087891 18.16222656 17.07925781 16.86132812 17.08789062 C15.04858398 17.09272461 15.04858398 17.09272461 13.19921875 17.09765625 C11.52605591 17.10551147 11.52605591 17.10551147 9.8190918 17.11352539 C7 17 7 17 4 16 C4.0825 15.113125 4.165 14.22625 4.25 13.3125 C3.94393816 9.25718062 2.52429259 8.0764816 0 5 C-0.25 2.1875 -0.25 2.1875 0 0 Z " fill="#EAC946" transform="translate(313,141)"/>
<path d="M0 0 C1.953125 0.078125 1.953125 0.078125 4 1 C5.484375 3.109375 5.484375 3.109375 6.75 5.75 C7.17796875 6.61109375 7.6059375 7.4721875 8.046875 8.359375 C9.0432543 11.11983569 9.26448716 13.09064128 9 16 C8 17 8 17 5.4375 17.0625 C4.633125 17.041875 3.82875 17.02125 3 17 C2.35163958 15.25093469 1.70641216 13.50070781 1.0625 11.75 C0.70285156 10.77546875 0.34320313 9.8009375 -0.02734375 8.796875 C-1.73843416 3.87663108 -1.73843416 3.87663108 -2 2 C-1.34 1.34 -0.68 0.68 0 0 Z " fill="#403007" transform="translate(293,138)"/>
<path d="M0 0 C8.60380091 3.06519891 15.04817115 9.87129791 21.4375 16.1875 C21.94547119 16.68620605 22.45344238 17.18491211 22.97680664 17.69873047 C25.83578228 20.5821418 28.07226516 23.42552219 30 27 C28.35 27.33 26.7 27.66 25 28 C24.75765625 27.38511719 24.5153125 26.77023438 24.265625 26.13671875 C21.83222932 20.14016626 21.83222932 20.14016626 17 16 C17 15.34 17 14.68 17 14 C16.360625 13.731875 15.72125 13.46375 15.0625 13.1875 C13 12 13 12 12 9 C8.50765756 8.90021879 5.40562852 9.22157062 2 10 C2.33 9.01 2.66 8.02 3 7 C3.66 6.67 4.32 6.34 5 6 C4.175 5.38125 3.35 4.7625 2.5 4.125 C1.675 3.42375 0.85 2.7225 0 2 C0 1.34 0 0.68 0 0 Z " fill="#E6C73C" transform="translate(307,114)"/>
<path d="M0 0 C0.99 0 1.98 0 3 0 C8.87031495 12.99700727 8.87031495 12.99700727 9 20 C8.34 20.66 7.68 21.32 7 22 C7 21.01 7 20.02 7 19 C6.401875 18.835 5.80375 18.67 5.1875 18.5 C1.28709679 15.8254378 0.42336156 11.17675278 -0.44140625 6.73046875 C-0.71186489 4.8304112 -0.86564901 2.9145016 -1 1 C-0.67 0.67 -0.34 0.34 0 0 Z " fill="#181618" transform="translate(355,160)"/>
<path d="M0 0 C1.65 0 3.3 0 5 0 C5.12375 1.2375 5.2475 2.475 5.375 3.75 C5.75987523 6.90709245 6.39687075 9.22124263 8 12 C8 12.66 8 13.32 8 14 C8.66 14 9.32 14 10 14 C12.10865385 17.47307692 12.10865385 17.47307692 11.55859375 20.140625 C11.37425781 20.75421875 11.18992187 21.3678125 11 22 C10.61328125 21.33613281 10.2265625 20.67226562 9.828125 19.98828125 C5.97103862 13.0710183 5.97103862 13.0710183 1 7 C-1.66928121 6.58129447 -1.66928121 6.58129447 -4 7 C-3.40072174 10.35595828 -2.15377564 12.37801226 0 15 C-2.86724686 14.42655063 -3.8614515 14.1385485 -6 12 C-6.33333333 6.66666667 -6.33333333 6.66666667 -5 4 C-3.02 4 -1.04 4 1 4 C0.67 2.68 0.34 1.36 0 0 Z " fill="#FACD2C" transform="translate(313,125)"/>
<path d="M0 0 C8.17962388 -0.04628728 16.35919327 -0.08185072 24.53891563 -0.10362434 C28.33686312 -0.11407321 32.13472118 -0.12825236 35.93261719 -0.15087891 C39.59601346 -0.17256821 43.25932357 -0.18456031 46.92277908 -0.18975449 C48.32226544 -0.19345731 49.72174695 -0.20068777 51.12119675 -0.21146011 C53.07733331 -0.22592225 55.03355609 -0.22681647 56.98974609 -0.22705078 C58.66186661 -0.23371262 58.66186661 -0.23371262 60.36776733 -0.24050903 C63 0 63 0 65 2 C65.31537716 6.33643601 65.44897847 8.32653229 63 12 C62.01 11.67 61.02 11.34 60 11 C60.66 10.67 61.32 10.34 62 10 C62.04241723 7.66705225 62.04092937 5.33297433 62 3 C60.23246465 1.23246465 57.68441194 1.82913939 55.28686523 1.79467773 C54.0656749 1.77473251 52.84448456 1.75478729 51.58628845 1.73423767 C50.24372487 1.71725209 48.90115993 1.70037333 47.55859375 1.68359375 C46.19238139 1.66303053 44.82617549 1.64203423 43.4599762 1.62062073 C39.85805476 1.56533465 36.25607529 1.51595437 32.65405273 1.46777344 C28.98090428 1.41760597 25.30784045 1.36189515 21.63476562 1.30664062 C14.42324868 1.19897918 7.21166153 1.09755213 0 1 C0 0.67 0 0.34 0 0 Z " fill="#F5D74D" transform="translate(352,199)"/>
<path d="M0 0 C0.33 0.66 0.66 1.32 1 2 C0.34 2 -0.32 2 -1 2 C-0.67 3.65 -0.34 5.3 0 7 C-0.99 6.67 -1.98 6.34 -3 6 C-3.99 6.66 -4.98 7.32 -6 8 C-5.67 9.32 -5.34 10.64 -5 12 C-7.75 13.5625 -7.75 13.5625 -11 15 C-11.66 14.8040625 -12.32 14.608125 -13 14.40625 C-13.66 14.2721875 -14.32 14.138125 -15 14 C-16.78431645 15.17949873 -16.78431645 15.17949873 -18.25 16.9375 C-18.77078125 17.50339844 -19.2915625 18.06929687 -19.828125 18.65234375 C-20.21484375 19.09707031 -20.6015625 19.54179687 -21 20 C-21.66 19.67 -22.32 19.34 -23 19 C-15.9758608 11.4050504 -8.63702973 5.60459296 0 0 Z " fill="#F2CB37" transform="translate(195,112)"/>
<path d="M0 0 C2.3825658 2.3825658 3.01093097 4.26446637 4.125 7.4375 C4.47820312 8.40558594 4.83140625 9.37367188 5.1953125 10.37109375 C6 14 6 14 6 25 C-4.23 25 -14.46 25 -25 25 C-25 24.67 -25 24.34 -25 24 C-15.1 24 -5.2 24 5 24 C4.34 22.35 3.68 20.7 3 19 C2.67 19 2.34 19 2 19 C1.34 12.73 0.68 6.46 0 0 Z " fill="#D10D1B" transform="translate(352,166)"/>
<path d="M0 0 C0.33 0.33 0.66 0.66 1 1 C2.51469448 1.23192865 4.03754562 1.41215238 5.5625 1.5625 C6.80193359 1.68818359 6.80193359 1.68818359 8.06640625 1.81640625 C8.70449219 1.87699219 9.34257812 1.93757813 10 2 C6.43600422 4.37599719 2.91618826 5.15731805 -1.1875 6.125 C-1.93708984 6.30675781 -2.68667969 6.48851563 -3.45898438 6.67578125 C-5.30470781 7.12251686 -7.15219132 7.5619694 -9 8 C-8.67 6.68 -8.34 5.36 -8 4 C-8.66 4 -9.32 4 -10 4 C-10 3.01 -10 2.02 -10 1 C-6.23355012 -0.82941851 -4.03077875 -1.23162684 0 0 Z " fill="#160E04" transform="translate(216,98)"/>
<path d="M0 0 C-0.45742854 4.66577113 -0.9059467 8.35343718 -4 12 C-6.6875 12.3125 -6.6875 12.3125 -9 12 C-9.32469403 7.34605219 -8.79790518 4.76641082 -6 1 C-4 0 -4 0 0 0 Z " fill="#281903" transform="translate(223,140)"/>
<path d="M0 0 C2.64 0 5.28 0 8 0 C8.97258369 2.7961781 9.39994252 4.11940137 9 7 C6.67594015 10.64755635 3.92344079 13.82067817 1 17 C0.01 16.67 -0.98 16.34 -2 16 C-1.4225 15.46890625 -0.845 14.9378125 -0.25 14.390625 C0.4925 13.68421875 1.235 12.9778125 2 12.25 C2.7425 11.55390625 3.485 10.8578125 4.25 10.140625 C6.42195334 7.94468043 6.42195334 7.94468043 6 4 C0.96014269 4.44469329 -1.37634988 6.71343362 -5 10 C-5 8.68 -5 7.36 -5 6 C-4.34 6 -3.68 6 -3 6 C-3 5.34 -3 4.68 -3 4 C-2.01 4 -1.02 4 0 4 C0 2.68 0 1.36 0 0 Z " fill="#E3C241" transform="translate(191,124)"/>
<path d="M0 0 C1 3 1 3 0 6 C12.21 6 24.42 6 37 6 C37.33 5.01 37.66 4.02 38 3 C39.68496298 3.96885372 41.35178756 4.96986723 43 6 C43 6.33 43 6.66 43 7 C28.15 7 13.3 7 -2 7 C-1 1 -1 1 0 0 Z " fill="#F1CF48" transform="translate(157,151)"/>
<path d="M0 0 C-0.33333333 1.33333333 -0.66666667 2.66666667 -1 4 C-1.12375 4.721875 -1.2475 5.44375 -1.375 6.1875 C-1.58125 6.785625 -1.7875 7.38375 -2 8 C-2.99 8.33 -3.98 8.66 -5 9 C-6.66710346 10.49985609 -6.66710346 10.49985609 -8 12 C-9 5.25 -9 5.25 -9 3 C-8.01 3 -7.02 3 -6 3 C-6 2.34 -6 1.68 -6 1 C-3 0 -3 0 0 0 Z " fill="#FACF25" transform="translate(198,138)"/>
<path d="M0 0 C0.66 0 1.32 0 2 0 C1.39925164 2.47808698 0.74217341 4.93247283 0.0625 7.390625 C-1.73540753 13.8958577 -3.44881894 20.24803196 -4 27 C-4.66 27 -5.32 27 -6 27 C-6.31105326 18.60156203 -4.91036115 10.89955168 -2 3 C-1.34 3 -0.68 3 0 3 C0 2.01 0 1.02 0 0 Z " fill="#300002" transform="translate(147,165)"/>
<path d="M0 0 C0.99 0.66 1.98 1.32 3 2 C2.62746094 2.45890625 2.25492188 2.9178125 1.87109375 3.390625 C1.39800781 4.00421875 0.92492187 4.6178125 0.4375 5.25 C-0.03816406 5.85328125 -0.51382813 6.4565625 -1.00390625 7.078125 C-2.22889098 8.97811554 -2.22889098 8.97811554 -1.65234375 11.234375 C-1.43707031 11.81703125 -1.22179687 12.3996875 -1 13 C2.25543229 12.65120368 3.01873107 11.97866739 5.25 9.4375 C5.8275 8.633125 6.405 7.82875 7 7 C7 8.32 7 9.64 7 11 C6.34 11 5.68 11 5 11 C4.34 12.65 3.68 14.3 3 16 C0.625 16.125 0.625 16.125 -2 16 C-4 14 -4 14 -4.375 11.375 C-3.8878962 6.99106584 -2.15775023 3.79532854 0 0 Z " fill="#E1C340" transform="translate(179,138)"/>
<path d="M0 0 C0.91120605 0.01047363 1.82241211 0.02094727 2.76123047 0.03173828 C3.74736328 0.03818359 4.73349609 0.04462891 5.74951172 0.05126953 C7.29832031 0.07640625 7.29832031 0.07640625 8.87841797 0.10205078 C9.91869141 0.11107422 10.95896484 0.12009766 12.03076172 0.12939453 C14.60520889 0.15301331 17.17920009 0.18594929 19.75341797 0.22705078 C19.75341797 0.55705078 19.75341797 0.88705078 19.75341797 1.22705078 C9.35841797 1.72205078 9.35841797 1.72205078 -1.24658203 2.22705078 C-2.32028532 7.58265204 -2.32028532 7.58265204 -1.24658203 12.22705078 C-2.56658203 11.23705078 -3.88658203 10.24705078 -5.24658203 9.22705078 C-4.26929598 0.43147634 -4.26929598 0.43147634 0 0 Z " fill="#E5CD4B" transform="translate(92.24658203125,198.77294921875)"/>
<path d="M0 0 C0.33 1.32 0.66 2.64 1 4 C0.113125 4.66 -0.77375 5.32 -1.6875 6 C-4.97136647 8.68750393 -6.82884498 11.71616885 -8.82421875 15.42578125 C-9.40623047 16.20501953 -9.40623047 16.20501953 -10 17 C-10.99 17 -11.98 17 -13 17 C-9.12281347 10.86467186 -4.91706956 5.33894831 0 0 Z " fill="#D5B944" transform="translate(171,132)"/>
<path d="M0 0 C6.54549161 0.52965517 12.24524079 1.78748161 18.4375 3.9375 C19.63922852 4.33485352 19.63922852 4.33485352 20.86523438 4.74023438 C26.732103 6.732103 26.732103 6.732103 29 9 C23.57279094 8.51758142 19.01581289 6.98607175 13.93359375 5.0546875 C9.36755689 3.41310301 4.69836839 2.19958342 0 1 C0 0.67 0 0.34 0 0 Z " fill="#DEC345" transform="translate(269,100)"/>
<path d="M0 0 C0.99 0.33 1.98 0.66 3 1 C3.50130606 6.26371362 2.31168629 8.9090934 -1 13 C-1.66 13 -2.32 13 -3 13 C-3.33 13.66 -3.66 14.32 -4 15 C-4.66 14.67 -5.32 14.34 -6 14 C-5.566875 13.40832031 -5.13375 12.81664062 -4.6875 12.20703125 C-4.130625 11.41683594 -3.57375 10.62664062 -3 9.8125 C-2.1646875 8.64654297 -2.1646875 8.64654297 -1.3125 7.45703125 C0.151369 4.71663363 0.26080213 3.05899163 0 0 Z " fill="#DFC33B" transform="translate(209,134)"/>
<path d="M0 0 C0.33 0.66 0.66 1.32 1 2 C1.99 2 2.98 2 4 2 C4.66 4.97 5.32 7.94 6 11 C4.68 10.67 3.36 10.34 2 10 C0.953125 7.93359375 0.953125 7.93359375 0.25 5.4375 C0.00765625 4.61121094 -0.2346875 3.78492188 -0.484375 2.93359375 C-0.65453125 2.29550781 -0.8246875 1.65742188 -1 1 C-0.67 0.67 -0.34 0.34 0 0 Z " fill="#080303" transform="translate(295,142)"/>
<path d="M0 0 C0.66 0.33 1.32 0.66 2 1 C3.99021521 0.90276549 3.99021521 0.90276549 6.125 0.5625 C7.40375 0.376875 8.6825 0.19125 10 0 C9.01 1.98 8.02 3.96 7 6 C6.67 5.34 6.34 4.68 6 4 C4.35 4.66 2.7 5.32 1 6 C1 5.34 1 4.68 1 4 C0.34 3.67 -0.32 3.34 -1 3 C-0.67 2.01 -0.34 1.02 0 0 Z " fill="#1C1310" transform="translate(148,150)"/>
<path d="M0 0 C1.65 0.33 3.3 0.66 5 1 C4.84595887 6.08335725 1.97931568 8.35754718 -1.50390625 11.64453125 C-1.99761719 12.09183594 -2.49132812 12.53914062 -3 13 C-3.33 12.01 -3.66 11.02 -4 10 C-2.71034824 8.62437146 -1.37310707 7.29233607 0 6 C0.66 6 1.32 6 2 6 C2 4.68 2 3.36 2 2 C1.34 1.34 0.68 0.68 0 0 Z " fill="#2C1B02" transform="translate(193,127)"/>
<path d="M0 0 C0.66 0 1.32 0 2 0 C5.68494027 7.52341971 5.28710687 14.83340455 5 23 C4.67 23 4.34 23 4 23 C3.96261719 22.26136719 3.92523438 21.52273437 3.88671875 20.76171875 C3.4167952 13.51015333 2.16943497 6.93127651 0 0 Z " fill="#3B0202" transform="translate(354,169)"/>
<path d="M0 0 C1.9375 0.125 1.9375 0.125 4 1 C5.25 3.5625 5.25 3.5625 6 6 C5.38125 5.79375 4.7625 5.5875 4.125 5.375 C3.42375 5.25125 2.7225 5.1275 2 5 C1.34 5.66 0.68 6.32 0 7 C-0.66 6.34 -1.32 5.68 -2 5 C-1.46428571 1.46428571 -1.46428571 1.46428571 0 0 Z " fill="#1F1103" transform="translate(293,138)"/>
<path d="M0 0 C0.33 0.66 0.66 1.32 1 2 C0.34 2 -0.32 2 -1 2 C-0.67 3.65 -0.34 5.3 0 7 C-0.99 6.67 -1.98 6.34 -3 6 C-4.2375 6.7425 -4.2375 6.7425 -5.5 7.5 C-6.7375 8.2425 -6.7375 8.2425 -8 9 C-8.99 8.67 -9.98 8.34 -11 8 C-9.5433323 6.85204994 -8.08461063 5.70670581 -6.625 4.5625 C-5.40683594 3.60537109 -5.40683594 3.60537109 -4.1640625 2.62890625 C-2 1 -2 1 0 0 Z " fill="#DEC037" transform="translate(195,112)"/>
<path d="M0 0 C-5.22468764 4.39973696 -9.30713088 4.47617251 -16 4 C-13.71185277 1.71185277 -12.19248378 1.24548839 -9.125 0.3125 C-8.26132813 0.04050781 -7.39765625 -0.23148437 -6.5078125 -0.51171875 C-3.91305068 -1.01692938 -2.469215 -0.85561171 0 0 Z " fill="#D6B83C" transform="translate(222,103)"/>
<path d="M0 0 C0.66 0 1.32 0 2 0 C1.01 2.97 0.02 5.94 -1 9 C-2.32 8.67 -3.64 8.34 -5 8 C-7.27144074 9.85432087 -7.27144074 9.85432087 -9 12 C-9.66 11.67 -10.32 11.34 -11 11 C-10.28972656 10.37351562 -9.57945312 9.74703125 -8.84765625 9.1015625 C-7.46900391 7.87566406 -7.46900391 7.87566406 -6.0625 6.625 C-5.14597656 5.81289063 -4.22945312 5.00078125 -3.28515625 4.1640625 C-0.96398605 2.21290653 -0.96398605 2.21290653 0 0 Z " fill="#CFCFCF" transform="translate(183,306)"/>
<path d="M0 0 C3.71080883 4.42442592 6.84577733 9.17403931 10 14 C9.67 14.66 9.34 15.32 9 16 C8.34 16 7.68 16 7 16 C6.74605469 15.36191406 6.49210937 14.72382813 6.23046875 14.06640625 C5.71419922 12.82697266 5.71419922 12.82697266 5.1875 11.5625 C4.85105469 10.73878906 4.51460938 9.91507813 4.16796875 9.06640625 C3.11596912 6.66627512 3.11596912 6.66627512 0 6 C0 4.02 0 2.04 0 0 Z " fill="#D1B843" transform="translate(337,141)"/>
<path d="M0 0 C0.66 0 1.32 0 2 0 C0.66511872 3.59391114 -0.96022723 6.75490696 -3 10 C-4.32 9.67 -5.64 9.34 -7 9 C-7 7.02 -7 5.04 -7 3 C-6.67 3 -6.34 3 -6 3 C-6 4.65 -6 6.3 -6 8 C-5.34 8 -4.68 8 -4 8 C-3.67 6.68 -3.34 5.36 -3 4 C-2.34 4 -1.68 4 -1 4 C-0.67 2.68 -0.34 1.36 0 0 Z " fill="#312202" transform="translate(202,146)"/>
<path d="M0 0 C2.29013653 3.4352048 2.17842973 4.985331 2 9 C0.02 9.33 -1.96 9.66 -4 10 C-4 9.34 -4 8.68 -4 8 C-3.34 8 -2.68 8 -2 8 C-2.04125 7.236875 -2.0825 6.47375 -2.125 5.6875 C-2 3 -2 3 0 0 Z " fill="#F0CB2F" transform="translate(188,141)"/>
<path d="M0 0 C1.32 0 2.64 0 4 0 C4.33 1.98 4.66 3.96 5 6 C5.66 6 6.32 6 7 6 C9.10865385 9.47307692 9.10865385 9.47307692 8.55859375 12.140625 C8.28208984 13.06101563 8.28208984 13.06101563 8 14 C7.03980636 12.41779413 6.08192202 10.83418669 5.125 9.25 C4.59132813 8.36828125 4.05765625 7.4865625 3.5078125 6.578125 C2.24403334 4.41725907 1.08501165 2.25429605 0 0 Z " fill="#E8C945" transform="translate(316,133)"/>
<path d="M0 0 C1.65 0 3.3 0 5 0 C5 0.66 5 1.32 5 2 C3.68 2.33 2.36 2.66 1 3 C1.59927826 6.35595828 2.84622436 8.37801226 5 11 C2.13275314 10.42655063 1.1385485 10.1385485 -1 8 C-1.33333333 2.66666667 -1.33333333 2.66666667 0 0 Z " fill="#D4B841" transform="translate(308,129)"/>
<path d="M0 0 C1.32 0.33 2.64 0.66 4 1 C4.144375 1.598125 4.28875 2.19625 4.4375 2.8125 C4.8872439 4.56150404 5.42892341 6.28677023 6 8 C4.02 8 2.04 8 0 8 C0.185625 7.236875 0.37125 6.47375 0.5625 5.6875 C1.22819173 2.91032625 1.22819173 2.91032625 0 0 Z " fill="#100D14" transform="translate(349,148)"/>
<path d="M0 0 C3.73639216 1.24546405 4.18756513 2.63404953 6 6 C4.34385343 6.38218767 2.67542976 6.71395102 1 7 C0 6 0 6 -0.0625 2.9375 C-0.041875 1.968125 -0.02125 0.99875 0 0 Z " fill="#E5C734" transform="translate(331,135)"/>
<path d="M0 0 C1.98 0 3.96 0 6 0 C5.2575 0.70125 4.515 1.4025 3.75 2.125 C1.02182777 4.97718006 -0.91302954 7.6763063 -3 11 C-3.33 10.34 -3.66 9.68 -4 9 C-3.02616054 7.31791365 -2.02304948 5.65261839 -1 4 C-0.30420546 1.80869466 -0.30420546 1.80869466 0 0 Z " fill="#DEBE47" transform="translate(202,133)"/>
<path d="M0 0 C1 2 1 2 0.0625 5.125 C-0.288125 6.07375 -0.63875 7.0225 -1 8 C-0.01 8.33 0.98 8.66 2 9 C0.125 9.625 0.125 9.625 -2 10 C-2.66 9.34 -3.32 8.68 -4 8 C-3.66306057 4.63060567 -2.11180592 2.57089417 0 0 Z " fill="#382805" transform="translate(180,142)"/>
<path d="M0 0 C0 0.66 0 1.32 0 2 C-0.66 2 -1.32 2 -2 2 C-2 2.99 -2 3.98 -2 5 C-3.98 5.33 -5.96 5.66 -8 6 C-8 5.01 -8 4.02 -8 3 C-2.25 0 -2.25 0 0 0 Z " fill="#D4B738" transform="translate(206,107)"/>
<path d="M0 0 C0.33 0 0.66 0 1 0 C1.08333357 4.8333472 0.95261487 9.23692563 0 14 C0.66 14.33 1.32 14.66 2 15 C1.01 15.66 0.02 16.32 -1 17 C-1 16.34 -1 15.68 -1 15 C-1.66 14.67 -2.32 14.34 -3 14 C-2.34 14 -1.68 14 -1 14 C-1.0309375 12.205625 -1.0309375 12.205625 -1.0625 10.375 C-1.06882571 6.81995131 -0.69888875 3.49444376 0 0 Z " fill="#434343" transform="translate(210,343)"/>
<path d="M0 0 C0.99 0.495 0.99 0.495 2 1 C2.5 2.625 2.5 2.625 3 5 C3.66152556 7.3347961 4.32741333 9.66836622 5 12 C4.34 12 3.68 12 3 12 C2.67 11.34 2.34 10.68 2 10 C1.34 9.67 0.68 9.34 0 9 C0 6.03 0 3.06 0 0 Z " fill="#DCC03E" transform="translate(290,139)"/>
<path d="M0 0 C0.66 0.33 1.32 0.66 2 1 C1.04882866 2.1725131 0.08882991 3.33787015 -0.875 4.5 C-1.40867187 5.1496875 -1.94234375 5.799375 -2.4921875 6.46875 C-2.98976563 6.9740625 -3.48734375 7.479375 -4 8 C-4.66 8 -5.32 8 -6 8 C-6.33 8.99 -6.66 9.98 -7 11 C-7.33 10.34 -7.66 9.68 -8 9 C-6.85459775 7.68712379 -5.70866567 6.37470979 -4.5625 5.0625 C-3.92441406 4.33160156 -3.28632812 3.60070312 -2.62890625 2.84765625 C-1.77458541 1.87860647 -0.91348825 0.91348825 0 0 Z " fill="#E3E3E3" transform="translate(63,109)"/>
<path d="M0 0 C2.31 1.98 4.62 3.96 7 6 C6.01 6.33 5.02 6.66 4 7 C3.67 7.99 3.34 8.98 3 10 C2.01 6.7 1.02 3.4 0 0 Z " fill="#D6D6D6" transform="translate(313,305)"/>
<path d="M0 0 C0.33 0 0.66 0 1 0 C2.25 6.625 2.25 6.625 0 10 C-2.125 10.6875 -2.125 10.6875 -4 11 C-3.71125 10.484375 -3.4225 9.96875 -3.125 9.4375 C-1.71219973 6.37643275 -0.8751483 3.25055082 0 0 Z " fill="#1B1305" transform="translate(417,203)"/>
<path d="M0 0 C0.33 0 0.66 0 1 0 C1.25 6.625 1.25 6.625 -1 10 C-1.99 9.67 -2.98 9.34 -4 9 C-3.34 8.67 -2.68 8.34 -2 8 C-1.62599214 5.67284 -1.29235267 3.33882138 -1 1 C-0.67 0.67 -0.34 0.34 0 0 Z " fill="#CFB944" transform="translate(416,201)"/>
<path d="M0 0 C0.99 0 1.98 0 3 0 C3 2.97 3 5.94 3 9 C1.68 8.67 0.36 8.34 -1 8 C-0.34 8 0.32 8 1 8 C0.67 5.36 0.34 2.72 0 0 Z " fill="#E2C138" transform="translate(325,148)"/>
<path d="M0 0 C0 3 0 3 -2 5.1875 C-2.66 5.785625 -3.32 6.38375 -4 7 C-4.33 5.02 -4.66 3.04 -5 1 C-3.35 0.67 -1.7 0.34 0 0 Z " fill="#FBCD16" transform="translate(194,143)"/>
<path d="M0 0 C-0.25561323 2.3431213 -0.59270772 4.67843403 -1 7 C-1.99 7.495 -1.99 7.495 -3 8 C-2.67 6.02 -2.34 4.04 -2 2 C-3.32 2.33 -4.64 2.66 -6 3 C-6 2.34 -6 1.68 -6 1 C-4 0 -4 0 0 0 Z " fill="#2E1C03" transform="translate(223,140)"/>
<path d="M0 0 C0.99 0 1.98 0 3 0 C2.67 1.98 2.34 3.96 2 6 C1.01 6.33 0.02 6.66 -1 7 C-1.04254356 5.00045254 -1.04080783 2.99958364 -1 1 C-0.67 0.67 -0.34 0.34 0 0 Z " fill="#090408" transform="translate(218,142)"/>
<path d="M0 0 C0.33 0.66 0.66 1.32 1 2 C-0.25 5.5625 -0.25 5.5625 -2 9 C-2.99 9.33 -3.98 9.66 -5 10 C-3.66511872 6.40608886 -2.03977277 3.24509304 0 0 Z " fill="#291B03" transform="translate(202,138)"/>
<path d="M0 0 C0.33 1.32 0.66 2.64 1 4 C-1.31 5.65 -3.62 7.3 -6 9 C-4.68775452 5.06326356 -3.08089673 2.77280706 0 0 Z " fill="#E7C744" transform="translate(171,132)"/>
<path d="M0 0 C3.93673644 1.31224548 6.22719294 2.91910327 9 6 C8.01 6.33 7.02 6.66 6 7 C6 6.34 6 5.68 6 5 C5.195625 4.731875 4.39125 4.46375 3.5625 4.1875 C2.716875 3.795625 1.87125 3.40375 1 3 C0.67 2.01 0.34 1.02 0 0 Z " fill="#DCBF44" transform="translate(307,114)"/>
<path d="M0 0 C0.33 0 0.66 0 1 0 C1.268125 0.928125 1.53625 1.85625 1.8125 2.8125 C2.91148371 5.76240366 3.62418561 7.05615186 6 9 C4.02 9 2.04 9 0 9 C0 6.03 0 3.06 0 0 Z " fill="#231702" transform="translate(86,203)"/>
<path d="M0 0 C2 2 2 2 2 6 C-0.64 6 -3.28 6 -6 6 C-6 5.67 -6 5.34 -6 5 C-4.35 5 -2.7 5 -1 5 C-0.67 3.35 -0.34 1.7 0 0 Z " fill="#F40416" transform="translate(355,184)"/>
<path d="M0 0 C1.32 0.33 2.64 0.66 4 1 C0.535 3.97 0.535 3.97 -3 7 C-3 3 -3 3 -1.75 1.1875 C-1.1725 0.795625 -0.595 0.40375 0 0 Z " fill="#312104" transform="translate(172,127)"/>
<path d="M0 0 C1.32 0.33 2.64 0.66 4 1 C2.515 3.475 2.515 3.475 1 6 C0.01 5.67 -0.98 5.34 -2 5 C-2 4.01 -2 3.02 -2 2 C-1.34 2 -0.68 2 0 2 C0 1.34 0 0.68 0 0 Z " fill="#F7D02B" transform="translate(206,107)"/>
<path d="M0 0 C1.32 0 2.64 0 4 0 C4 0.66 4 1.32 4 2 C4.66 2 5.32 2 6 2 C6 2.99 6 3.98 6 5 C4.68 4.67 3.36 4.34 2 4 C2 3.34 2 2.68 2 2 C1.34 2 0.68 2 0 2 C0 1.34 0 0.68 0 0 Z " fill="#FBD11A" transform="translate(206,152)"/>
<path d="M0 0 C0.33 0.66 0.66 1.32 1 2 C0.67 2.66 0.34 3.32 0 4 C1.32 4.33 2.64 4.66 4 5 C3.67 5.99 3.34 6.98 3 8 C2.34 7.67 1.68 7.34 1 7 C1 6.34 1 5.68 1 5 C-0.32 5.33 -1.64 5.66 -3 6 C-1.125 1.125 -1.125 1.125 0 0 Z " fill="#322306" transform="translate(184,136)"/>
<path d="M0 0 C0 3.99904969 -1.72586967 5.80200422 -4 9 C-4.66 8.67 -5.32 8.34 -6 8 C-4.55746343 4.63408134 -2.66735273 2.48952921 0 0 Z " fill="#2E2E2E" transform="translate(154,377)"/>
<path d="M0 0 C3.16115776 1.36983503 3.9927092 1.9890638 6 5 C3.03 4.505 3.03 4.505 0 4 C0 2.68 0 1.36 0 0 Z " fill="#FDD11D" transform="translate(188,152)"/>
<path d="M0 0 C2.16874252 0.50603992 3.99967627 0.99983813 6 2 C6.625 4.0625 6.625 4.0625 7 6 C6.01 6 5.02 6 4 6 C1.8125 3 1.8125 3 0 0 Z " fill="#241502" transform="translate(334,137)"/>
<path d="M0 0 C1.2065625 0.0309375 1.2065625 0.0309375 2.4375 0.0625 C2.4375 1.0525 2.4375 2.0425 2.4375 3.0625 C1.4475 3.0625 0.4575 3.0625 -0.5625 3.0625 C-1.2225 3.7225 -1.8825 4.3825 -2.5625 5.0625 C-3.125 3.125 -3.125 3.125 -3.5625 1.0625 C-2.5625 0.0625 -2.5625 0.0625 0 0 Z " fill="#322503" transform="translate(311.5625,130.9375)"/>
<path d="M0 0 C2.3125 0.1875 2.3125 0.1875 5 1 C6.8125 3.5625 6.8125 3.5625 8 6 C5 6 5 6 3.61328125 4.6875 C2.40885417 3.125 1.20442708 1.5625 0 0 Z " fill="#241700" transform="translate(319,121)"/>
<path d="M0 0 C0.66 0 1.32 0 2 0 C2.66 1.32 3.32 2.64 4 4 C4.66 4 5.32 4 6 4 C5.67 4.99 5.34 5.98 5 7 C2.69 5.35 0.38 3.7 -2 2 C-1.34 1.34 -0.68 0.68 0 0 Z " fill="#2B1A03" transform="translate(312,114)"/>
<path d="M0 0 C0.66 0.66 1.32 1.32 2 2 C-0.31 3.65 -2.62 5.3 -5 7 C-3.92643531 2.70574125 -3.4915227 2.25259529 0 0 Z " fill="#281902" transform="translate(188,114)"/>
<path d="M0 0 C0.33 0.66 0.66 1.32 1 2 C1.66 2.33 2.32 2.66 3 3 C2.01 3.495 2.01 3.495 1 4 C0.53248212 6.35599235 0.53248212 6.35599235 0.375 9.0625 C0.30023438 9.98160156 0.22546875 10.90070313 0.1484375 11.84765625 C0.09945313 12.55792969 0.05046875 13.26820312 0 14 C-0.33 14 -0.66 14 -1 14 C-1.02694851 12.04174127 -1.04637218 10.08337774 -1.0625 8.125 C-1.07410156 7.03445312 -1.08570313 5.94390625 -1.09765625 4.8203125 C-1 2 -1 2 0 0 Z " fill="#C8C8C8" transform="translate(381,92)"/>
<path d="M0 0 C0.66 0 1.32 0 2 0 C2.33 1.98 2.66 3.96 3 6 C1.68 5.67 0.36 5.34 -1 5 C-0.67 3.35 -0.34 1.7 0 0 Z " fill="#F0CC2F" transform="translate(293,151)"/>
<path d="M0 0 C1.9375 0.3125 1.9375 0.3125 4 1 C4.33 1.99 4.66 2.98 5 4 C3.35 3.67 1.7 3.34 0 3 C0 2.01 0 1.02 0 0 Z " fill="#F7D515" transform="translate(309,150)"/>
<path d="M0 0 C2.125 0.375 2.125 0.375 4 1 C3.360625 1.268125 2.72125 1.53625 2.0625 1.8125 C-0.33131686 2.88667752 -0.33131686 2.88667752 -1 6 C-1.625 4.125 -1.625 4.125 -2 2 C-1.34 1.34 -0.68 0.68 0 0 Z " fill="#432F05" transform="translate(293,138)"/>
<path d="M0 0 C0.99 0.33 1.98 0.66 3 1 C1.70700306 3.88437779 0.34058637 5.87219421 -2 8 C-1.47731534 5.23723823 -0.89130413 2.6739124 0 0 Z " fill="#251802" transform="translate(164,135)"/>
</svg>
